<svg width="794" height="591" viewBox="0 0 794 591" fill="none" xmlns="http://www.w3.org/2000/svg">
<path d="M793.396 519.121H0.603516V519.517H793.396V519.121Z" fill="#EBEBEB"/>
<path d="M713.957 544.632H679.582V545.028H713.957V544.632Z" fill="#EBEBEB"/>
<path d="M547.106 536.42H493.021V536.816H547.106V536.42Z" fill="#EBEBEB"/>
<path d="M700.038 529.918H629.432V530.314H700.038V529.918Z" fill="#EBEBEB"/>
<path d="M274.941 537.908H257.277V538.305H274.941V537.908Z" fill="#EBEBEB"/>
<path d="M243.148 537.908H182.277V538.305H243.148V537.908Z" fill="#EBEBEB"/>
<path d="M149.665 531.219H105.744V531.615H149.665V531.219Z" fill="#EBEBEB"/>
<path d="M376.388 448.403H70.2273C67.8288 448.399 65.5301 447.443 63.8356 445.746C62.1411 444.048 61.1894 441.748 61.1895 439.349V8.97441C61.2103 6.58973 62.1712 4.30958 63.8635 2.62924C65.5557 0.948906 67.8425 0.00408508 70.2273 0H376.388C378.789 0 381.092 0.953868 382.79 2.65176C384.488 4.34966 385.441 6.6525 385.441 9.05368V439.349C385.441 441.751 384.488 444.054 382.79 445.751C381.092 447.449 378.789 448.403 376.388 448.403ZM70.2273 0.317118C67.934 0.321318 65.736 1.23527 64.1159 2.85837C62.4958 4.48148 61.5858 6.68109 61.5858 8.97441V439.349C61.5858 441.643 62.4958 443.842 64.1159 445.466C65.736 447.089 67.934 448.003 70.2273 448.007H376.388C378.682 448.003 380.882 447.089 382.505 445.466C384.127 443.844 385.041 441.644 385.045 439.349V8.97441C385.041 6.67964 384.127 4.48006 382.505 2.85741C380.882 1.23476 378.682 0.321309 376.388 0.317118H70.2273Z" fill="#EBEBEB"/>
<path d="M719.363 448.403H413.186C410.787 448.399 408.486 447.444 406.789 445.747C405.092 444.05 404.137 441.749 404.133 439.349V8.97441C404.158 6.58828 405.122 4.30815 406.817 2.62825C408.512 0.948352 410.8 0.00404053 413.186 0H719.363C721.745 0.00825217 724.028 0.954917 725.716 2.63481C727.405 4.3147 728.364 6.59247 728.385 8.97441V439.349C728.385 441.745 727.435 444.043 725.744 445.74C724.053 447.437 721.758 448.395 719.363 448.403ZM413.186 0.317118C410.892 0.321309 408.692 1.23476 407.069 2.85741C405.447 4.48006 404.533 6.67964 404.529 8.97441V439.349C404.533 441.644 405.447 443.844 407.069 445.466C408.692 447.089 410.892 448.003 413.186 448.007H719.363C721.658 448.003 723.857 447.089 725.48 445.466C727.102 443.844 728.016 441.644 728.02 439.349V8.97441C728.016 6.67964 727.102 4.48006 725.48 2.85741C723.857 1.23476 721.658 0.321309 719.363 0.317118H413.186Z" fill="#EBEBEB"/>
<path d="M182.944 189.683C191.737 189.683 200.17 186.19 206.388 179.972C212.606 173.755 216.099 165.322 216.099 156.529C216.099 147.735 212.606 139.302 206.388 133.085C200.17 126.867 191.737 123.374 182.944 123.374H178.869V189.683H182.944Z" fill="#E0E0E0"/>
<path d="M178.84 189.683C197.151 189.683 211.995 174.839 211.995 156.529C211.995 138.218 197.151 123.374 178.84 123.374C160.529 123.374 145.686 138.218 145.686 156.529C145.686 174.839 160.529 189.683 178.84 189.683Z" fill="#F5F5F5"/>
<path d="M177.316 160.684C165.542 160.684 154.249 156.006 145.923 147.68C137.597 139.354 132.92 128.062 132.92 116.287V89.7922C132.92 88.6862 133.359 87.6255 134.141 86.8435C134.923 86.0614 135.984 85.6221 137.09 85.6221C138.196 85.6221 139.257 86.0614 140.039 86.8435C140.821 87.6255 141.26 88.6862 141.26 89.7922V116.303C141.268 125.861 145.068 135.024 151.824 141.784C158.581 148.543 167.743 152.347 177.3 152.359C177.869 152.324 178.438 152.406 178.973 152.599C179.509 152.792 179.999 153.093 180.414 153.483C180.829 153.873 181.159 154.344 181.385 154.866C181.611 155.389 181.728 155.952 181.728 156.521C181.728 157.091 181.611 157.654 181.385 158.176C181.159 158.699 180.829 159.17 180.414 159.56C179.999 159.95 179.509 160.25 178.973 160.444C178.438 160.637 177.869 160.719 177.3 160.684H177.316Z" fill="#E0E0E0"/>
<path d="M100.226 113.132H173.987C175.167 113.132 176.33 112.862 177.389 112.341C178.448 111.82 179.372 111.064 180.092 110.129C180.812 109.195 181.308 108.108 181.542 106.951C181.775 105.795 181.74 104.601 181.439 103.46L175.018 79.2799C174.584 77.6372 173.62 76.1838 172.275 75.1458C170.93 74.1078 169.28 73.5432 167.581 73.54H106.631C104.93 73.5424 103.278 74.1064 101.93 75.1443C100.583 76.1821 99.6156 77.6359 99.179 79.2799L92.8367 103.428C92.528 104.566 92.485 105.759 92.711 106.916C92.937 108.073 93.426 109.163 94.1401 110.101C94.8543 111.039 95.7745 111.8 96.8297 112.325C97.8848 112.851 99.0467 113.127 100.226 113.132Z" fill="#F5F5F5"/>
<path d="M651.136 189.683C659.929 189.683 668.362 186.19 674.579 179.972C680.797 173.755 684.29 165.322 684.29 156.529C684.29 147.735 680.797 139.302 674.579 133.085C668.362 126.867 659.929 123.374 651.136 123.374H647.061V189.683H651.136Z" fill="#E0E0E0"/>
<path d="M647.063 189.683C665.374 189.683 680.217 174.839 680.217 156.529C680.217 138.218 665.374 123.374 647.063 123.374C628.752 123.374 613.908 138.218 613.908 156.529C613.908 174.839 628.752 189.683 647.063 189.683Z" fill="#F5F5F5"/>
<path d="M645.541 160.684C633.766 160.684 622.474 156.006 614.148 147.68C605.822 139.354 601.145 128.062 601.145 116.287V89.7922C601.145 88.6862 601.584 87.6255 602.366 86.8435C603.148 86.0614 604.209 85.6221 605.315 85.6221C606.421 85.6221 607.481 86.0614 608.263 86.8435C609.045 87.6255 609.485 88.6862 609.485 89.7922V116.303C609.493 125.861 613.292 135.024 620.049 141.784C626.806 148.543 635.968 152.347 645.525 152.359C646.093 152.324 646.663 152.406 647.198 152.599C647.733 152.792 648.224 153.093 648.638 153.483C649.053 153.873 649.384 154.344 649.61 154.866C649.836 155.389 649.952 155.952 649.952 156.521C649.952 157.091 649.836 157.654 649.61 158.176C649.384 158.699 649.053 159.17 648.638 159.56C648.224 159.95 647.733 160.25 647.198 160.444C646.663 160.637 646.093 160.719 645.525 160.684H645.541Z" fill="#E0E0E0"/>
<path d="M568.449 113.132H642.211C643.39 113.132 644.554 112.861 645.613 112.341C646.671 111.82 647.596 111.063 648.316 110.129C649.036 109.194 649.532 108.107 649.766 106.951C649.999 105.795 649.964 104.6 649.663 103.46L643.321 79.3111C642.887 77.6684 641.923 76.2151 640.578 75.177C639.233 74.139 637.583 73.5745 635.884 73.5713H574.855C573.154 73.5737 571.502 74.1376 570.154 75.1755C568.807 76.2134 567.84 77.6672 567.403 79.3111L561.061 103.46C560.758 104.595 560.719 105.785 560.948 106.938C561.176 108.091 561.666 109.176 562.38 110.11C563.093 111.044 564.012 111.802 565.064 112.326C566.116 112.85 567.274 113.125 568.449 113.132Z" fill="#F5F5F5"/>
<path d="M213.04 413.616H237.156V320.178H213.04V413.616Z" fill="#E6E6E6"/>
<path d="M147.668 413.6H227.692L239.775 304.242H159.75L147.668 413.6Z" fill="#F0F0F0"/>
<path d="M138.99 413.6H221.663L233.745 304.242H151.088L138.99 413.6Z" fill="#F5F5F5"/>
<path d="M215.689 404.99L225.869 312.867H157.054L146.875 404.99H215.689Z" fill="white"/>
<path d="M201.482 382.648L201.974 378.954C204.527 355.836 190.098 335.239 171.356 335.239L170.928 338.997C168.375 362.099 182.804 382.696 201.562 382.696L201.482 382.648Z" fill="#F5F5F5"/>
<path d="M94.2969 519.121H165.395V413.601H94.2969L94.2969 519.121Z" fill="#E6E6E6"/>
<path d="M101.432 519.12H94.2812V498.777H108.932L101.432 519.12Z" fill="#F0F0F0"/>
<path d="M293.557 519.121H364.654V413.601H293.557V519.121Z" fill="#E6E6E6"/>
<path d="M94.2815 506.642H299.789V413.615H94.2815V506.642Z" fill="#F0F0F0"/>
<path d="M292.635 519.12H299.786V498.777H285.135L292.635 519.12Z" fill="#F0F0F0"/>
<path d="M99.8298 456.966H294.238V419.419H99.8298V456.966Z" fill="#E6E6E6"/>
<path d="M184.072 443.963H209.996C215.57 443.965 221.086 442.83 226.206 440.627C231.326 438.424 235.943 435.2 239.774 431.151H154.295C158.128 435.198 162.745 438.421 167.864 440.623C172.984 442.826 178.499 443.962 184.072 443.963Z" fill="#F0F0F0"/>
<path d="M99.8298 500.569H294.238V463.023H99.8298V500.569Z" fill="#E6E6E6"/>
<path d="M184.072 487.503H209.996C215.57 487.505 221.086 486.37 226.206 484.167C231.326 481.964 235.943 478.74 239.774 474.691H154.295C158.128 478.738 162.745 481.961 167.864 484.163C172.984 486.366 178.499 487.502 184.072 487.503Z" fill="#F0F0F0"/>
<path d="M286.771 409.304H288.61C288.61 405.514 288.61 395.921 288.8 373.929C289.133 334.052 289.767 331.626 289.767 331.626L285.391 350.035C282.616 370.409 286.2 390.895 286.771 409.304Z" fill="#E6E6E6"/>
<path d="M283.139 347.242C276.797 339.742 263.399 337.554 249.636 335.683C244.229 334.954 263.827 347.306 273.42 356.074C280.872 362.892 285.629 364.779 287.69 371.565C288.737 363.098 288.562 353.759 283.139 347.242Z" fill="#E6E6E6"/>
<path d="M291.494 360.689C297.836 353.189 311.235 351.017 324.997 349.146C330.404 348.417 310.727 360.768 301.214 369.537C293.761 376.355 289.005 378.242 286.943 385.028C285.897 376.561 286.008 367.158 291.494 360.689Z" fill="#E6E6E6"/>
<path d="M288.8 329.801C293.557 320.827 305.385 312.36 318.72 309.189C323.952 307.936 306.59 325.742 299.994 337.238C294.873 346.149 288.086 356.645 287.024 364.193C285.438 349.32 284.075 338.823 288.8 329.801Z" fill="#E6E6E6"/>
<path d="M288.23 413.6C282.617 413.6 277.972 410.794 277.639 407.178L276.703 401.026H299.773L298.822 407.178C298.505 410.794 293.938 413.6 288.23 413.6Z" fill="#F0F0F0"/>
<path d="M301.263 403.388H275.212L274.467 396.522H302.008L301.263 403.388Z" fill="#F0F0F0"/>
<path d="M269.425 272.275L523.451 272.275V40.574L269.425 40.574V272.275Z" fill="#E6E6E6"/>
<path d="M263.716 272.275L520.961 272.275V40.574L263.716 40.574V272.275Z" fill="#F5F5F5"/>
<path d="M510.686 261.906V50.96L273.958 50.96V261.906H510.686Z" fill="#FAFAFA"/>
<path d="M481.653 261.906L388.484 50.96H356.836L450.005 261.906H481.653Z" fill="white"/>
<path d="M441.033 261.906L347.864 50.96H326.078L419.247 261.906H441.033Z" fill="white"/>
<path d="M361.863 261.891V50.9453H349.623V261.891H361.863Z" fill="#E6E6E6"/>
<path d="M443.234 261.891V50.9453H430.994V261.891H443.234Z" fill="#E6E6E6"/>
<path d="M359.66 268.487V43.2393H344.185V268.487H359.66Z" fill="#F5F5F5"/>
<path d="M441.033 268.487V43.2393H425.558V268.487H441.033Z" fill="#F5F5F5"/>
<path d="M275.068 261.908V50.9619H273.974V261.908H275.068Z" fill="#E6E6E6"/>
<path d="M259.404 27.2236H534.598C534.95 27.2277 535.286 27.3694 535.535 27.6183C535.784 27.8672 535.926 28.2036 535.93 28.5555C535.926 28.906 535.784 29.2407 535.534 29.4871C535.285 29.7334 534.949 29.8716 534.598 29.8716H259.404C259.054 29.8716 258.717 29.7334 258.468 29.4871C258.219 29.2407 258.076 28.906 258.072 28.5555C258.076 28.2036 258.218 27.8672 258.467 27.6183C258.716 27.3694 259.052 27.2277 259.404 27.2236Z" fill="#E6E6E6"/>
<path d="M523.45 35.9615C523.922 35.9574 524.374 35.7667 524.707 35.4312C525.039 35.0956 525.226 34.6423 525.226 34.1698V30.3327C525.228 30.0982 525.183 29.8656 525.095 29.6483C525.007 29.431 524.876 29.2333 524.711 29.0667C524.546 28.9002 524.35 28.7679 524.133 28.6777C523.917 28.5875 523.684 28.541 523.45 28.541C522.977 28.541 522.524 28.7276 522.189 29.0602C521.853 29.3928 521.662 29.8444 521.658 30.3169V34.154C521.658 34.6306 521.846 35.088 522.182 35.4266C522.518 35.7651 522.973 35.9574 523.45 35.9615Z" fill="#E6E6E6"/>
<path d="M279.348 35.9615C279.822 35.9574 280.275 35.7673 280.611 35.4322C280.946 35.0971 281.136 34.6438 281.14 34.1698V30.3327C281.14 29.8575 280.951 29.4018 280.615 29.0658C280.279 28.7298 279.823 28.541 279.348 28.541C278.877 28.541 278.426 28.7281 278.092 29.0612C277.759 29.3942 277.572 29.8459 277.572 30.3169V34.154C277.57 34.3893 277.615 34.6227 277.703 34.8409C277.791 35.059 277.921 35.2577 278.086 35.4256C278.251 35.5934 278.447 35.7272 278.664 35.8191C278.88 35.9111 279.113 35.9595 279.348 35.9615Z" fill="#E6E6E6"/>
<path opacity="0.6" d="M259.814 209.995L516.885 209.995V28.5409L259.814 28.5409V209.995Z" fill="#E0E0E0"/>
<path d="M540.16 324.998H495.827C491.116 324.998 487.297 328.817 487.297 333.528V354.046C487.297 358.757 491.116 362.576 495.827 362.576H540.16C544.871 362.576 548.691 358.757 548.691 354.046V333.528C548.691 328.817 544.871 324.998 540.16 324.998Z" fill="#FAFAFA"/>
<path d="M545.821 318.053H490.167C488.582 318.053 487.297 319.338 487.297 320.923V323.238C487.297 324.823 488.582 326.108 490.167 326.108H545.821C547.406 326.108 548.691 324.823 548.691 323.238V320.923C548.691 319.338 547.406 318.053 545.821 318.053Z" fill="#E6E6E6"/>
<path d="M488.203 404.324C488.203 404.324 489.012 430.756 519.804 430.756C550.596 430.756 551.405 404.324 551.405 404.324H488.203Z" fill="#F0F0F0"/>
<path d="M558.414 404.324C558.414 404.324 559.223 430.756 590.015 430.756C620.807 430.756 621.615 404.324 621.615 404.324H558.414Z" fill="#F0F0F0"/>
<path d="M606.362 307.983H545.476C538.995 307.983 533.742 313.237 533.742 319.717V350.858C533.742 357.338 538.995 362.591 545.476 362.591H606.362C612.842 362.591 618.095 357.338 618.095 350.858V319.717C618.095 313.237 612.842 307.983 606.362 307.983Z" fill="#F0F0F0"/>
<path d="M614.163 298.439H537.674C535.503 298.439 533.742 300.2 533.742 302.372V305.575C533.742 307.746 535.503 309.507 537.674 309.507H614.163C616.335 309.507 618.095 307.746 618.095 305.575V302.372C618.095 300.2 616.335 298.439 614.163 298.439Z" fill="#F5F5F5"/>
<path d="M465.007 519.121H472.998V388.088H465.007V519.121Z" fill="#E6E6E6"/>
<path d="M695.757 362.575H652.486V388.071H695.757V362.575Z" fill="#E6E6E6"/>
<path d="M437.337 388.087H652.469V362.591H437.337V388.087Z" fill="#F5F5F5"/>
<path d="M695.757 430.677H652.486V456.173H695.757V430.677Z" fill="#E6E6E6"/>
<path d="M437.337 456.173H652.469V430.677H437.337V456.173Z" fill="#F5F5F5"/>
<path d="M680.138 519.121H688.129V388.088H680.138V519.121Z" fill="#E6E6E6"/>
<path d="M644.495 519.121H652.486V388.088H644.495V519.121Z" fill="#F5F5F5"/>
<path d="M437.339 519.121H445.33V388.088H437.339V519.121Z" fill="#F5F5F5"/>
<path d="M396.999 590.726C566.787 590.726 704.428 582.69 704.428 572.777C704.428 562.864 566.787 554.828 396.999 554.828C227.211 554.828 89.5703 562.864 89.5703 572.777C89.5703 582.69 227.211 590.726 396.999 590.726Z" fill="#F5F5F5"/>
<path d="M413.505 492.324H211.232C207.979 492.278 204.864 491.004 202.512 488.757C200.159 486.51 198.743 483.457 198.547 480.21L180.408 128.924C180.308 127.361 180.531 125.795 181.064 124.323C181.597 122.851 182.429 121.504 183.507 120.369C184.584 119.233 185.885 118.332 187.327 117.722C188.77 117.113 190.322 116.807 191.888 116.826H394.161C397.412 116.868 400.527 118.139 402.88 120.383C405.233 122.627 406.65 125.678 406.845 128.924L424.953 480.21C425.053 481.771 424.831 483.335 424.3 484.806C423.769 486.277 422.94 487.623 421.866 488.759C420.792 489.896 419.495 490.799 418.057 491.412C416.618 492.026 415.069 492.336 413.505 492.324Z" fill="#F39325"/>
<path opacity="0.8" d="M413.505 492.324H211.232C207.979 492.278 204.864 491.004 202.512 488.757C200.159 486.51 198.743 483.457 198.547 480.21L180.408 128.924C180.308 127.361 180.531 125.795 181.064 124.323C181.597 122.851 182.429 121.504 183.507 120.369C184.584 119.233 185.885 118.332 187.327 117.722C188.77 117.113 190.322 116.807 191.888 116.826H394.161C397.412 116.868 400.527 118.139 402.88 120.383C405.233 122.627 406.65 125.678 406.845 128.924L424.953 480.21C425.053 481.771 424.831 483.335 424.3 484.806C423.769 486.277 422.94 487.623 421.866 488.759C420.792 489.896 419.495 490.799 418.057 491.412C416.618 492.026 415.069 492.336 413.505 492.324Z" fill="white"/>
<path d="M374.199 105.378H351.826V106.964H374.199V105.378Z" fill="#F39325"/>
<path d="M344.071 105.378H335.873V106.964H344.071V105.378Z" fill="#F39325"/>
<path d="M422.211 470.03H228.77C225.655 470 222.667 468.791 220.408 466.646C218.148 464.501 216.785 461.58 216.593 458.471L199.278 122.486C199.182 120.99 199.396 119.491 199.906 118.082C200.417 116.673 201.213 115.385 202.244 114.299C203.276 113.212 204.521 112.35 205.902 111.767C207.282 111.184 208.768 110.893 210.266 110.911H403.708C406.823 110.945 409.809 112.158 412.065 114.306C414.322 116.454 415.681 119.376 415.869 122.486L433.184 458.471C433.28 459.964 433.067 461.461 432.557 462.868C432.047 464.275 431.252 465.562 430.222 466.647C429.192 467.732 427.949 468.593 426.57 469.175C425.192 469.757 423.708 470.048 422.211 470.03Z" fill="#F39325"/>
<path d="M422.21 462.31H228.769C227.634 462.271 226.554 461.817 225.732 461.033C224.911 460.25 224.406 459.192 224.313 458.061L206.983 122.091C206.944 121.644 207 121.194 207.147 120.77C207.295 120.347 207.531 119.959 207.839 119.634C208.148 119.308 208.523 119.053 208.939 118.883C209.354 118.714 209.801 118.634 210.249 118.65H403.69C404.822 118.693 405.899 119.149 406.717 119.932C407.535 120.715 408.038 121.771 408.13 122.9L425.54 458.869C425.578 459.314 425.522 459.763 425.374 460.185C425.227 460.607 424.992 460.993 424.685 461.318C424.378 461.643 424.006 461.899 423.593 462.07C423.18 462.241 422.736 462.323 422.289 462.31H422.21ZM210.249 119.047C209.855 119.034 209.462 119.104 209.097 119.251C208.731 119.398 208.4 119.621 208.124 119.903C207.86 120.196 207.657 120.539 207.529 120.913C207.401 121.286 207.35 121.682 207.379 122.075L224.694 458.045C224.782 459.074 225.243 460.035 225.991 460.747C226.739 461.46 227.721 461.875 228.753 461.914H422.194C422.586 461.929 422.977 461.861 423.341 461.713C423.705 461.565 424.033 461.342 424.303 461.057C424.574 460.769 424.781 460.426 424.909 460.051C425.038 459.677 425.085 459.279 425.048 458.885L407.75 122.916C407.665 121.888 407.207 120.927 406.462 120.214C405.717 119.501 404.737 119.086 403.706 119.047H210.249Z" fill="white"/>
<path opacity="0.3" d="M354.548 241.098C376.55 218.52 375.117 181.44 351.348 158.277C327.579 135.114 290.474 134.64 268.472 157.217C246.471 179.795 247.903 216.875 271.673 240.038C295.442 263.201 332.546 263.675 354.548 241.098Z" fill="white"/>
<path d="M358.947 199.164C359.39 206.956 357.823 214.731 354.396 221.743C350.686 229.264 344.927 235.583 337.782 239.973C330.637 244.363 322.397 246.646 314.011 246.557C305.321 246.479 296.799 244.152 289.275 239.804C281.751 235.456 275.48 229.233 271.074 221.743C266.967 214.893 264.604 207.14 264.192 199.164C263.801 193.047 264.677 186.916 266.765 181.153C268.852 175.39 272.107 170.12 276.325 165.673C280.543 161.226 285.633 157.697 291.278 155.308C296.922 152.919 302.999 151.72 309.128 151.787C321.884 151.92 334.116 156.881 343.36 165.672C352.604 174.463 358.173 186.431 358.947 199.164Z" fill="white"/>
<path d="M354.348 221.743C350.638 229.264 344.878 235.583 337.733 239.973C330.588 244.364 322.349 246.646 313.963 246.557C305.273 246.479 296.751 244.153 289.227 239.804C281.702 235.456 275.432 229.233 271.025 221.743C283.075 213.422 297.385 208.994 312.029 209.058C327.063 209.115 341.761 213.52 354.348 221.743Z" fill="#F39325"/>
<path d="M326.199 198.063C334.125 189.929 333.606 176.567 325.039 168.218C316.472 159.87 303.102 159.696 295.175 167.83C287.248 175.965 287.767 189.326 296.334 197.675C304.901 206.023 318.272 206.197 326.199 198.063Z" fill="#F39325"/>
<path d="M394.478 339.316H243.007C241.687 339.302 240.422 338.789 239.466 337.88C238.51 336.971 237.934 335.733 237.854 334.416L236.712 312.218C236.673 311.586 236.764 310.954 236.981 310.359C237.197 309.765 237.534 309.221 237.97 308.763C238.406 308.305 238.932 307.941 239.515 307.695C240.098 307.449 240.725 307.327 241.358 307.334H392.829C394.145 307.348 395.408 307.858 396.364 308.764C397.32 309.67 397.898 310.904 397.982 312.218L399.123 334.416C399.165 335.049 399.075 335.683 398.86 336.28C398.644 336.876 398.308 337.421 397.872 337.882C397.435 338.342 396.909 338.707 396.325 338.953C395.741 339.2 395.112 339.323 394.478 339.316Z" fill="white"/>
<path opacity="0.3" d="M348.1 295.078H284.835C283.51 295.068 282.239 294.554 281.279 293.642C280.319 292.729 279.742 291.485 279.666 290.162L279.428 285.406C279.386 284.773 279.476 284.138 279.691 283.542C279.907 282.946 280.243 282.4 280.68 281.94C281.116 281.48 281.643 281.115 282.227 280.868C282.811 280.622 283.44 280.498 284.074 280.506H347.323C348.642 280.52 349.907 281.033 350.863 281.942C351.819 282.851 352.396 284.089 352.476 285.406L352.729 290.162C352.768 290.794 352.678 291.427 352.462 292.022C352.247 292.617 351.912 293.162 351.479 293.622C351.045 294.083 350.521 294.45 349.94 294.7C349.359 294.95 348.732 295.079 348.1 295.078Z" fill="black"/>
<path opacity="0.3" d="M371.628 446.042H276.857C274.613 446.014 272.463 445.139 270.836 443.592C269.21 442.046 268.229 439.941 268.089 437.702L267.534 426.761C267.478 425.686 267.642 424.61 268.015 423.6C268.388 422.59 268.963 421.667 269.705 420.887C270.447 420.106 271.34 419.485 272.33 419.061C273.32 418.637 274.385 418.419 275.462 418.421H370.201C372.445 418.449 374.596 419.323 376.222 420.87C377.848 422.417 378.829 424.521 378.969 426.761L379.524 437.702C379.58 438.774 379.417 439.847 379.046 440.855C378.674 441.863 378.102 442.784 377.364 443.564C376.625 444.344 375.736 444.966 374.75 445.392C373.764 445.818 372.702 446.039 371.628 446.042Z" fill="black"/>
<path d="M397.251 393.003H245.765C244.446 392.986 243.183 392.472 242.228 391.563C241.273 390.655 240.695 389.419 240.611 388.104L239.47 365.905C239.431 365.273 239.522 364.64 239.738 364.045C239.955 363.449 240.291 362.905 240.727 362.445C241.163 361.986 241.688 361.621 242.271 361.373C242.854 361.125 243.482 361 244.116 361.006H395.586C396.906 361.02 398.171 361.533 399.127 362.442C400.083 363.351 400.659 364.589 400.74 365.905L401.897 388.104C401.934 388.735 401.841 389.368 401.624 389.962C401.407 390.556 401.07 391.1 400.635 391.559C400.199 392.018 399.674 392.383 399.093 392.632C398.511 392.88 397.884 393.006 397.251 393.003Z" fill="white"/>
<path d="M262.225 323.316C262.269 324.016 262.168 324.718 261.928 325.378C261.688 326.038 261.314 326.641 260.831 327.15C260.347 327.659 259.764 328.063 259.117 328.336C258.47 328.609 257.774 328.746 257.072 328.738C255.614 328.721 254.216 328.152 253.16 327.146C252.104 326.14 251.468 324.771 251.38 323.316C251.334 322.616 251.433 321.914 251.672 321.254C251.91 320.594 252.282 319.991 252.764 319.482C253.246 318.973 253.829 318.569 254.475 318.295C255.121 318.022 255.816 317.885 256.517 317.893C257.977 317.91 259.377 318.478 260.436 319.484C261.494 320.49 262.134 321.858 262.225 323.316Z" fill="#263238"/>
<path d="M278.921 323.316C278.966 324.015 278.867 324.717 278.629 325.377C278.391 326.037 278.019 326.64 277.537 327.149C277.054 327.659 276.472 328.062 275.826 328.336C275.18 328.609 274.485 328.746 273.783 328.738C272.324 328.725 270.924 328.157 269.867 327.15C268.81 326.143 268.175 324.773 268.091 323.316C268.045 322.616 268.144 321.914 268.382 321.254C268.621 320.594 268.993 319.991 269.475 319.482C269.957 318.973 270.54 318.569 271.186 318.295C271.831 318.022 272.527 317.885 273.228 317.893C274.688 317.907 276.088 318.474 277.145 319.481C278.201 320.488 278.836 321.858 278.921 323.316Z" fill="#263238"/>
<path d="M295.519 323.316C295.565 324.015 295.466 324.717 295.228 325.377C294.99 326.037 294.618 326.64 294.135 327.149C293.653 327.659 293.071 328.062 292.425 328.336C291.779 328.609 291.083 328.746 290.382 328.738C288.922 328.721 287.522 328.153 286.464 327.147C285.405 326.141 284.766 324.773 284.674 323.316C284.63 322.615 284.732 321.913 284.972 321.253C285.212 320.593 285.585 319.99 286.069 319.481C286.552 318.972 287.136 318.568 287.782 318.295C288.429 318.022 289.125 317.885 289.827 317.893C291.286 317.91 292.683 318.479 293.739 319.485C294.795 320.491 295.431 321.86 295.519 323.316Z" fill="#263238"/>
<path d="M312.25 323.315C312.293 324.015 312.192 324.716 311.953 325.374C311.714 326.033 311.342 326.635 310.86 327.144C310.379 327.653 309.797 328.057 309.152 328.331C308.508 328.605 307.813 328.744 307.112 328.738C305.652 328.721 304.253 328.153 303.194 327.147C302.136 326.141 301.496 324.773 301.404 323.315C301.361 322.616 301.462 321.915 301.701 321.257C301.94 320.598 302.312 319.995 302.794 319.487C303.276 318.978 303.857 318.574 304.502 318.3C305.147 318.026 305.841 317.887 306.542 317.893C308.002 317.91 309.401 318.478 310.46 319.484C311.519 320.49 312.158 321.858 312.25 323.315Z" fill="#263238"/>
<path d="M265.033 376.973C265.079 377.673 264.98 378.375 264.742 379.034C264.503 379.694 264.132 380.297 263.649 380.807C263.167 381.316 262.584 381.72 261.938 381.993C261.293 382.267 260.597 382.404 259.896 382.396C258.436 382.378 257.036 381.81 255.977 380.804C254.919 379.799 254.28 378.43 254.188 376.973C254.144 376.272 254.245 375.57 254.485 374.91C254.725 374.25 255.099 373.647 255.582 373.138C256.066 372.629 256.649 372.226 257.296 371.952C257.943 371.679 258.639 371.542 259.341 371.55C260.799 371.568 262.197 372.136 263.253 373.142C264.309 374.148 264.945 375.517 265.033 376.973Z" fill="#263238"/>
<path d="M281.694 376.973C281.738 377.672 281.637 378.373 281.398 379.032C281.159 379.69 280.787 380.293 280.305 380.801C279.823 381.31 279.242 381.714 278.597 381.988C277.952 382.263 277.258 382.401 276.557 382.396C275.097 382.378 273.697 381.81 272.639 380.804C271.58 379.799 270.941 378.43 270.849 376.973C270.803 376.273 270.902 375.571 271.14 374.911C271.378 374.252 271.75 373.648 272.233 373.139C272.715 372.63 273.298 372.226 273.943 371.953C274.589 371.679 275.285 371.542 275.986 371.55C277.446 371.567 278.846 372.136 279.904 373.141C280.963 374.147 281.602 375.516 281.694 376.973Z" fill="#263238"/>
<path d="M298.358 376.973C298.402 377.674 298.301 378.376 298.061 379.035C297.821 379.695 297.447 380.298 296.964 380.807C296.48 381.316 295.897 381.72 295.25 381.993C294.603 382.267 293.907 382.403 293.205 382.396C291.746 382.382 290.346 381.814 289.289 380.807C288.232 379.801 287.597 378.43 287.513 376.973C287.467 376.273 287.566 375.571 287.804 374.911C288.042 374.252 288.414 373.648 288.897 373.139C289.379 372.63 289.962 372.226 290.607 371.953C291.253 371.679 291.949 371.542 292.65 371.55C294.11 371.567 295.51 372.136 296.568 373.141C297.627 374.147 298.266 375.516 298.358 376.973Z" fill="#263238"/>
<path d="M315.008 376.973C315.054 377.673 314.954 378.375 314.716 379.034C314.478 379.694 314.106 380.297 313.624 380.807C313.141 381.316 312.559 381.72 311.913 381.993C311.267 382.267 310.572 382.404 309.87 382.396C308.41 382.378 307.011 381.81 305.952 380.804C304.893 379.799 304.254 378.43 304.162 376.973C304.119 376.272 304.22 375.57 304.46 374.91C304.7 374.25 305.073 373.647 305.557 373.138C306.041 372.629 306.624 372.226 307.271 371.952C307.917 371.679 308.613 371.542 309.315 371.55C310.775 371.564 312.175 372.131 313.232 373.138C314.288 374.145 314.923 375.516 315.008 376.973Z" fill="#263238"/>
<path d="M331.674 376.973C331.72 377.673 331.62 378.374 331.382 379.034C331.144 379.694 330.772 380.297 330.29 380.806C329.807 381.316 329.225 381.72 328.579 381.993C327.933 382.266 327.238 382.403 326.536 382.395C325.076 382.378 323.677 381.81 322.618 380.804C321.559 379.799 320.92 378.43 320.828 376.973C320.785 376.273 320.886 375.572 321.125 374.914C321.364 374.255 321.736 373.653 322.218 373.144C322.699 372.635 323.281 372.231 323.926 371.957C324.57 371.683 325.265 371.544 325.966 371.55C327.426 371.567 328.825 372.135 329.884 373.141C330.942 374.147 331.582 375.515 331.674 376.973Z" fill="#263238"/>
<path d="M348.339 376.973C348.382 377.674 348.281 378.376 348.041 379.035C347.801 379.695 347.428 380.298 346.944 380.807C346.46 381.316 345.877 381.72 345.23 381.993C344.584 382.267 343.888 382.403 343.186 382.396C341.727 382.378 340.329 381.809 339.273 380.803C338.217 379.797 337.581 378.429 337.493 376.973C337.447 376.273 337.547 375.571 337.785 374.911C338.023 374.252 338.395 373.648 338.877 373.139C339.36 372.63 339.942 372.226 340.588 371.953C341.234 371.679 341.929 371.542 342.631 371.55C344.091 371.567 345.49 372.136 346.549 373.141C347.607 374.147 348.247 375.516 348.339 376.973Z" fill="#263238"/>
<path d="M528.603 192.839C528.999 193.441 529.205 193.759 529.459 194.187L530.172 195.36C530.632 196.153 531.045 196.946 531.441 197.722C532.234 199.308 533.027 200.894 533.661 202.479C534.99 205.628 536.134 208.853 537.086 212.135C539.005 218.62 540.27 225.281 540.859 232.019L540.97 233.271C540.984 233.525 540.984 233.779 540.97 234.032V234.873C540.997 235.975 540.933 237.078 540.78 238.171C540.476 240.196 539.944 242.18 539.194 244.085C537.801 247.488 535.956 250.688 533.708 253.598C529.515 258.968 524.539 263.677 518.947 267.567L514.57 262.446C518.552 257.949 522.079 253.067 525.099 247.875C526.457 245.519 527.522 243.005 528.27 240.391C528.573 239.283 528.748 238.145 528.793 236.997C528.842 236.507 528.842 236.013 528.793 235.523V235.19C528.809 235.042 528.809 234.893 528.793 234.746L528.603 233.636C527.583 227.727 526.142 221.898 524.29 216.195C523.37 213.356 522.245 210.613 521.119 207.934C520.564 206.586 519.93 205.27 519.295 204.001L518.312 202.13L517.821 201.258L517.409 200.561L528.603 192.839Z" fill="#803E3C"/>
<path d="M513.855 267.6L519.595 279.73L524.146 269.471C524.146 269.471 520.103 260.592 514.632 261.416L513.855 267.6Z" fill="#7F3E3B"/>
<path d="M523.7 280.332L528.267 272.848L524.144 269.471L519.594 279.729L523.7 280.332Z" fill="#7F3E3B"/>
<path d="M497.887 560.06C499.074 560.031 500.255 559.871 501.407 559.585C501.466 559.567 501.518 559.534 501.56 559.489C501.602 559.445 501.631 559.39 501.645 559.331C501.655 559.27 501.646 559.207 501.621 559.151C501.596 559.095 501.555 559.047 501.502 559.014C501.043 558.712 497.015 556.112 495.461 556.81C495.289 556.89 495.141 557.015 495.033 557.171C494.924 557.326 494.859 557.508 494.843 557.698C494.795 557.985 494.817 558.279 494.909 558.555C495 558.831 495.157 559.081 495.366 559.283C496.085 559.838 496.981 560.114 497.887 560.06ZM500.504 559.125C498.204 559.6 496.46 559.521 495.747 558.903C495.601 558.758 495.494 558.579 495.436 558.383C495.378 558.186 495.37 557.978 495.414 557.777C495.414 557.507 495.572 557.428 495.683 557.381C496.54 557 498.87 558.126 500.504 559.125Z" fill="#F39325"/>
<path d="M501.329 559.585H501.488C501.535 559.554 501.575 559.511 501.603 559.462C501.63 559.412 501.645 559.356 501.646 559.299C501.646 559.141 501.646 555.319 500.188 554.035C500.009 553.874 499.797 553.754 499.567 553.683C499.337 553.612 499.094 553.591 498.856 553.623C498.606 553.625 498.364 553.713 498.171 553.871C497.977 554.03 497.844 554.25 497.793 554.495C497.492 556.001 499.902 558.855 501.171 559.585H501.329ZM499.062 554.21C499.19 554.206 499.318 554.228 499.438 554.274C499.558 554.32 499.667 554.39 499.759 554.479C500.596 555.712 501.028 557.175 500.996 558.665C499.728 557.65 498.221 555.494 498.412 554.59C498.412 554.447 498.523 554.257 498.919 554.21H499.062Z" fill="#F39325"/>
<path d="M482.921 553.591C482.958 553.545 482.982 553.489 482.991 553.43C482.999 553.371 482.992 553.311 482.969 553.256C482.946 553.201 482.909 553.153 482.862 553.117C482.814 553.081 482.758 553.059 482.699 553.052C482.049 553.052 476.357 552.783 475.056 554.178V554.273C474.949 554.41 474.879 554.573 474.854 554.746C474.829 554.918 474.85 555.094 474.914 555.256C474.998 555.528 475.148 555.776 475.35 555.978C475.551 556.179 475.799 556.329 476.071 556.414C477.91 556.984 481.161 554.907 482.937 553.623L482.921 553.591ZM475.532 554.59C476.245 553.829 479.385 553.623 481.732 553.655C479.274 555.335 477.229 556.128 476.198 555.811C476.018 555.757 475.855 555.659 475.722 555.526C475.589 555.393 475.491 555.23 475.437 555.05C475.405 554.989 475.388 554.921 475.388 554.852C475.388 554.783 475.405 554.715 475.437 554.654L475.532 554.59Z" fill="#F39325"/>
<path d="M482.919 553.59C482.943 553.541 482.956 553.487 482.956 553.432C482.956 553.377 482.943 553.323 482.919 553.273C482.84 553.146 481.064 550.102 478.971 549.468C478.671 549.38 478.355 549.354 478.045 549.392C477.734 549.43 477.434 549.532 477.164 549.69C476.403 550.134 476.355 550.657 476.45 550.99C476.862 552.465 480.906 553.765 482.65 553.749C482.705 553.748 482.758 553.733 482.805 553.705C482.853 553.677 482.892 553.638 482.919 553.59ZM477.227 550.419C477.317 550.331 477.418 550.257 477.528 550.197C477.724 550.072 477.945 549.992 478.175 549.962C478.405 549.932 478.639 549.953 478.86 550.023C480.24 550.387 481.524 552.163 482.111 553.035C480.224 552.829 477.354 551.672 477.116 550.784C477.096 550.716 477.096 550.645 477.115 550.577C477.135 550.51 477.174 550.449 477.227 550.403V550.419Z" fill="#F39325"/>
<path d="M500.378 146.397C498.793 154.325 495.368 171.466 500.87 176.73C500.87 176.73 498.714 184.658 484.079 184.658C467.969 184.658 476.389 176.73 476.389 176.73C485.173 174.637 484.951 168.104 483.413 161.984L500.378 146.397Z" fill="#7F3E3B"/>
<path d="M473.551 127.814C473.64 127.828 473.731 127.828 473.82 127.814C473.896 127.776 473.963 127.725 474.018 127.662C474.073 127.598 474.115 127.525 474.142 127.445C474.168 127.365 474.179 127.281 474.173 127.198C474.166 127.114 474.144 127.032 474.106 126.957C473.679 126.053 473.042 125.264 472.247 124.657C471.453 124.05 470.524 123.643 469.539 123.469C469.374 123.455 469.21 123.505 469.08 123.608C468.951 123.711 468.865 123.86 468.842 124.024C468.824 124.19 468.872 124.356 468.976 124.487C469.08 124.617 469.231 124.702 469.397 124.722C470.174 124.871 470.905 125.203 471.528 125.691C472.151 126.18 472.649 126.809 472.98 127.528C473.041 127.622 473.127 127.698 473.227 127.748C473.327 127.798 473.439 127.821 473.551 127.814Z" fill="#263238"/>
<path d="M468.745 134.774C467.497 137.089 465.939 139.223 464.115 141.117C464.609 141.569 465.195 141.908 465.833 142.11C466.471 142.313 467.146 142.374 467.81 142.29L468.745 134.774Z" fill="#630F0F"/>
<path d="M469.936 132.983C469.809 134.045 469.127 134.838 468.446 134.759C467.764 134.68 467.288 133.744 467.415 132.682C467.542 131.619 468.224 130.827 469.001 130.906C469.778 130.985 470.047 131.921 469.936 132.983Z" fill="#263238"/>
<path d="M469.205 131.001L466.764 130.018C466.764 130.018 467.794 132.111 469.205 131.001Z" fill="#263238"/>
<path d="M496.922 550.579L483.984 553.591L476.119 523.846L489.058 520.833L496.922 550.579Z" fill="#7F3E3B"/>
<path d="M516.773 559.267H503.502L504.533 528.522H517.82L516.773 559.267Z" fill="#7F3E3B"/>
<path d="M502.439 557.729H517.36C517.618 557.726 517.869 557.818 518.065 557.988C518.26 558.157 518.387 558.392 518.422 558.648L520.119 570.445C520.152 570.743 520.122 571.045 520.031 571.331C519.939 571.617 519.788 571.88 519.587 572.104C519.386 572.327 519.14 572.505 518.866 572.626C518.591 572.748 518.294 572.809 517.994 572.807C512.793 572.728 510.288 572.411 503.724 572.411C499.68 572.411 493.782 572.839 488.217 572.839C482.651 572.839 482.334 567.321 484.665 566.83C495.066 564.578 496.715 561.502 500.219 558.553C500.839 558.024 501.625 557.732 502.439 557.729Z" fill="#263238"/>
<path d="M482.842 551.609L496.399 545.377C496.629 545.267 496.892 545.246 497.137 545.316C497.382 545.386 497.593 545.543 497.731 545.758L504.216 555.779C504.367 556.037 504.463 556.323 504.497 556.621C504.531 556.918 504.502 557.219 504.412 557.504C504.322 557.789 504.174 558.053 503.976 558.277C503.779 558.502 503.536 558.682 503.265 558.807C498.508 560.9 496.098 561.677 490.136 564.42C486.473 566.101 479.037 569.97 473.995 572.348C468.952 574.726 466.352 569.795 468.255 568.368C476.769 562.026 479.211 557.475 481.161 553.337C481.491 552.575 482.089 551.96 482.842 551.609Z" fill="#263238"/>
<path opacity="0.2" d="M476.119 523.846L480.337 539.797L493.117 536.166L489.073 520.833L476.119 523.846Z" fill="black"/>
<path opacity="0.2" d="M517.818 528.522H504.531L504.008 544.378H517.295L517.818 528.522Z" fill="black"/>
<path d="M523.845 179.742C529.363 180.963 535.261 200.798 535.261 200.798L519.659 217.4C519.659 217.4 506.705 198.753 509.353 191.903C512.033 184.752 517.265 178.315 523.845 179.742Z" fill="#263238"/>
<path opacity="0.4" d="M515.03 192.379C512.24 189.827 510.353 190.588 509.069 192.617C507.8 198.516 515.316 210.867 518.344 215.545C519.74 209.963 521.341 198.198 515.03 192.379Z" fill="black"/>
<path d="M453.937 180.139C453.937 180.139 447.595 182.358 460.279 260.29H514.189C513.286 238.345 513.254 224.804 523.703 179.742C516.149 178.184 508.491 177.177 500.791 176.73C492.641 176.142 484.46 176.142 476.31 176.73C465.861 177.697 453.937 180.139 453.937 180.139Z" fill="#263238"/>
<path opacity="0.4" d="M453.445 210.043C453.794 213.833 454.254 218.098 454.856 222.918C459.28 218.939 462.895 207.618 461.563 201.021C458.403 203.587 455.664 206.631 453.445 210.043Z" fill="black"/>
<path d="M459.215 198.199C456.306 205.52 453.03 212.691 449.4 219.683C445.812 226.928 441.566 233.828 436.716 240.296L435.701 241.548L435.194 242.167C435.019 242.373 434.877 242.563 434.607 242.849C433.653 243.89 432.59 244.825 431.436 245.639C429.396 247.051 427.164 248.162 424.808 248.937C420.699 250.25 416.433 251.007 412.123 251.189C404.052 251.51 395.973 250.79 388.086 249.048L388.958 242.389C392.605 242.389 396.426 242.389 400.057 242.088C403.704 241.908 407.336 241.506 410.934 240.882C414.276 240.361 417.544 239.446 420.67 238.155C421.932 237.616 423.112 236.901 424.174 236.031C424.579 235.691 424.946 235.308 425.268 234.889C425.268 234.889 425.458 234.635 425.585 234.461L425.95 233.938L426.695 232.891C430.674 226.746 434.218 220.329 437.302 213.69C440.474 206.951 443.645 199.959 446.546 193.077L459.215 198.199Z" fill="#803E3C"/>
<path d="M453.937 180.138C447.325 181.724 439.207 199.863 439.207 199.863L452.907 220C452.907 220 471.157 197.025 468.984 190.017C466.764 182.707 462.008 178.172 453.937 180.138Z" fill="#263238"/>
<path d="M392.763 243.402L381.331 238.122L380.189 249.491C380.189 249.491 389.703 252.297 394.46 249.491L392.763 243.402Z" fill="#7F3E3B"/>
<path d="M374.498 236.981L373.404 245.639L380.191 249.492L381.332 238.123L374.498 236.981Z" fill="#7F3E3B"/>
<path d="M506.12 133.76C503.694 146.715 502.949 152.264 495.528 158.147C484.429 166.994 468.97 161.191 467.479 147.777C466.116 135.695 470.302 116.541 483.731 112.894C486.69 112.078 489.808 112.033 492.788 112.764C495.769 113.495 498.513 114.978 500.757 117.07C503.002 119.162 504.674 121.795 505.613 124.717C506.551 127.638 506.726 130.752 506.12 133.76Z" fill="#7F3E3B"/>
<path d="M477.656 136.487C476.911 143.098 476.626 160.27 491.15 160.809C508.924 161.459 514.252 146.27 512.666 140.197C521.926 132.665 523.258 119.711 512.856 109.801C502.455 99.8912 479.559 105.425 473.217 115.081C465.178 127.052 477.656 136.487 477.656 136.487Z" fill="#263238"/>
<path d="M495.462 113.656C494.606 106.679 495.272 101.875 501.804 101.875C508.337 101.875 517.248 104.238 520.514 110.913C523.781 117.588 524.05 128.037 514.933 126.975C505.816 125.912 496.493 121.996 495.462 113.656Z" fill="#F39325"/>
<path d="M505.579 111.974C503.993 103.666 511.43 80.2625 529.49 78.6769C537.861 77.9634 541.73 86.9695 537.418 88.46C545.345 88.3648 550.419 98.8455 543.03 100.415C548.865 104.157 547.423 111.831 539.098 115.605C532.899 118.459 507.72 123.486 505.579 111.974Z" fill="#263238"/>
<path d="M524.875 120.9C519.055 120.9 512.983 120.044 509.209 117.523C508.154 116.887 507.265 116.009 506.617 114.961C505.97 113.913 505.581 112.726 505.483 111.498C505.478 111.394 505.513 111.291 505.581 111.212C505.649 111.133 505.744 111.082 505.847 111.07C505.9 111.063 505.953 111.068 506.004 111.083C506.055 111.098 506.102 111.123 506.142 111.158C506.182 111.192 506.215 111.234 506.238 111.282C506.261 111.33 506.274 111.382 506.276 111.434C506.371 112.543 506.727 113.613 507.314 114.558C507.9 115.503 508.702 116.296 509.653 116.873C516.836 121.63 533.437 120.044 538.606 118.459C543.077 117 546.106 114.162 546.708 110.895C546.896 109.697 546.748 108.47 546.28 107.35C545.813 106.23 545.044 105.262 544.06 104.553C544.022 104.517 543.992 104.474 543.971 104.427C543.951 104.379 543.94 104.328 543.94 104.276C543.94 104.224 543.951 104.172 543.971 104.124C543.992 104.077 544.022 104.034 544.06 103.998C544.134 103.925 544.234 103.885 544.338 103.885C544.441 103.885 544.541 103.925 544.615 103.998C545.722 104.806 546.582 105.905 547.1 107.173C547.618 108.442 547.773 109.829 547.548 111.181C546.898 114.748 543.68 117.793 538.923 119.347C534.333 120.504 529.606 121.026 524.875 120.9Z" fill="#263238"/>
<path d="M473.614 134.775C472.137 136.846 471.529 139.412 471.917 141.926C472.441 145.256 475.675 145.478 478.022 143.353C480.369 141.228 482.414 137.391 480.686 134.632C480.302 134.036 479.771 133.549 479.145 133.216C478.52 132.882 477.819 132.715 477.11 132.729C476.401 132.744 475.708 132.939 475.096 133.297C474.484 133.655 473.974 134.164 473.614 134.775Z" fill="#7F3E3B"/>
<path d="M474.518 260.29C474.518 260.29 482.223 351.445 490.231 402.818C496.684 444.313 501.79 541.303 501.79 541.303H519.897C519.897 541.303 526.334 447.215 523.068 406.18C514.776 302.324 533.279 293.857 514.236 260.306L474.518 260.29Z" fill="#F39325"/>
<path opacity="0.4" d="M497.319 294.745C490.143 302.277 484.352 311.015 480.211 320.558C482.32 341.044 484.825 363.781 487.489 383.696C498.419 355.399 501.807 324.746 497.319 294.745Z" fill="black"/>
<path d="M461.848 259.718C461.848 259.718 445.12 359.277 442.488 404.149C449.053 445.643 475.912 533.358 475.912 533.358L492.387 527.38C492.387 527.38 483.27 431.738 473.36 405.56C495.669 330.451 512.064 311.455 507.291 260.289C495.859 260.289 461.848 259.718 461.848 259.718Z" fill="#F39325"/>
<path d="M473.707 537.736L495.969 531.695L494.7 522.815L470.869 529.269L473.707 537.736Z" fill="#263238"/>
<path d="M499.299 541.668H522.369L523.574 533.581L499.172 532.757L499.299 541.668Z" fill="#263238"/>
<path d="M515.029 257.119L517.455 261.955C517.645 262.335 517.201 262.716 516.582 262.716H460.009C459.533 262.716 459.121 262.478 459.089 262.161L458.598 257.404C458.598 257.071 458.994 256.786 459.517 256.786H514.141C514.305 256.763 514.472 256.782 514.627 256.84C514.782 256.898 514.92 256.994 515.029 257.119Z" fill="#F39325"/>
<path opacity="0.5" d="M515.029 257.119L517.455 261.955C517.645 262.335 517.201 262.716 516.582 262.716H460.009C459.533 262.716 459.121 262.478 459.089 262.161L458.598 257.404C458.598 257.071 458.994 256.786 459.517 256.786H514.141C514.305 256.763 514.472 256.782 514.627 256.84C514.782 256.898 514.92 256.994 515.029 257.119Z" fill="black"/>
<path d="M507.687 263.207H509.146C509.447 263.207 509.669 263.049 509.653 262.875L508.955 256.532C508.955 256.342 508.686 256.199 508.401 256.199H506.926C506.641 256.199 506.419 256.342 506.434 256.532L507.116 262.875C507.148 263.081 507.402 263.207 507.687 263.207Z" fill="#F39325"/>
<path d="M488.056 217.035C487.881 217.033 487.712 216.974 487.572 216.869C487.432 216.763 487.33 216.616 487.279 216.449C482.11 197.326 471.424 181.566 466.239 179.187C465.836 178.94 465.352 178.86 464.891 178.965C464.795 179.016 464.69 179.046 464.582 179.054C464.474 179.063 464.366 179.049 464.263 179.014C464.161 178.979 464.067 178.923 463.987 178.85C463.907 178.777 463.843 178.688 463.799 178.59C463.754 178.491 463.73 178.384 463.729 178.276C463.727 178.168 463.748 178.06 463.789 177.96C463.83 177.86 463.892 177.77 463.97 177.695C464.047 177.619 464.14 177.561 464.241 177.523C464.674 177.363 465.137 177.301 465.597 177.339C466.057 177.377 466.504 177.516 466.905 177.744C472.391 180.345 483.236 195.884 488.659 215.434C492.544 215.434 498.537 214.911 499.996 214.784C501.803 212.627 515.091 196.01 510.128 177.824C510.099 177.724 510.091 177.619 510.103 177.516C510.116 177.413 510.149 177.313 510.201 177.223C510.252 177.133 510.322 177.054 510.404 176.991C510.487 176.928 510.582 176.882 510.683 176.857C510.884 176.803 511.099 176.831 511.28 176.935C511.461 177.039 511.594 177.21 511.65 177.412C517.183 197.644 501.137 215.894 500.963 216.068C500.901 216.145 500.824 216.209 500.737 216.255C500.65 216.301 500.554 216.329 500.456 216.338C500.376 216.338 492.464 217.035 488.056 217.035Z" fill="#F39325"/>
<path d="M514.332 228.228C505.69 212.039 502.154 210.897 500.616 205.697C501.781 202.788 503.445 200.106 505.532 197.769C504.485 197.467 502.234 197.023 500.775 196.754C500.933 196.04 501.108 195.343 501.266 194.661C499.679 194.483 498.073 194.558 496.51 194.883V193.297C494.495 192.859 492.427 192.726 490.373 192.901C490.553 193.651 490.727 194.413 490.897 195.184C489.311 195.485 486.901 195.977 485.743 196.31C487.993 198.857 489.645 201.875 490.579 205.142C485.918 213.149 467.81 264.617 497.271 268.565C526.731 272.513 522.957 244.432 514.332 228.228Z" fill="#F39325"/>
<path opacity="0.4" d="M514.332 228.228C505.69 212.039 502.154 210.897 500.616 205.697C501.781 202.788 503.445 200.106 505.532 197.769C504.485 197.467 502.234 197.023 500.775 196.754C500.933 196.04 501.108 195.343 501.266 194.661C499.679 194.483 498.073 194.558 496.51 194.883V193.297C494.495 192.859 492.427 192.726 490.373 192.901C490.553 193.651 490.727 194.413 490.897 195.184C489.311 195.485 486.901 195.977 485.743 196.31C487.993 198.857 489.645 201.875 490.579 205.142C485.918 213.149 467.81 264.617 497.271 268.565C526.731 272.513 522.957 244.432 514.332 228.228Z" fill="white"/>
<path d="M489.373 203.605C489.19 204.421 489.11 205.258 489.135 206.094C489.135 206.681 490.721 207.077 492.481 207.252C494.241 207.426 501.63 207.711 501.392 206.887C501.154 206.062 501.757 204.937 501.788 204.239C501.82 203.541 498.855 203.51 496.366 203.605C493.876 203.7 489.865 202.717 489.373 203.605Z" fill="#F39325"/>
<path d="M472.233 263.207H473.692C473.977 263.207 474.199 263.049 474.183 262.875L473.502 256.532C473.502 256.342 473.232 256.199 472.931 256.199H471.52C471.234 256.199 471.012 256.342 471.028 256.532L471.71 262.875C471.678 263.081 471.932 263.207 472.233 263.207Z" fill="#F39325"/>
</svg>
