<svg width="967" height="536" viewBox="0 0 967 536" fill="none" xmlns="http://www.w3.org/2000/svg">
<g clip-path="url(#clip0)">
<path d="M0.0693359 500.72H966.249" stroke="#EBEDF0" stroke-width="1.40842"/>
<path d="M0.0693359 421.848H966.249" stroke="#EBEDF0" stroke-width="1.40842"/>
<path d="M0.0693359 342.976H966.249" stroke="#EBEDF0" stroke-width="1.40842"/>
<path d="M0.0693359 264.104H966.249" stroke="#EBEDF0" stroke-width="1.40842"/>
<path d="M0.0693359 185.233H966.249" stroke="#EBEDF0" stroke-width="1.40842"/>
<path d="M0.0693359 106.361H966.249" stroke="#EBEDF0" stroke-width="1.40842"/>
<path d="M0.0698242 27.489H966.249" stroke="#EBEDF0" stroke-width="1.40842"/>
<path d="M583.158 189.458L584.566 500.717" stroke="#EBEDF0" stroke-width="1.40842"/>
<g clip-path="url(#clip1)">
<path d="M4.29785 531.734C3.15233 531.734 2.27911 531.302 1.67818 530.438C1.08664 529.565 0.790872 528.288 0.790872 526.607C0.790872 524.926 1.08664 523.654 1.67818 522.79C2.27911 521.917 3.15233 521.48 4.29785 521.48C5.44337 521.48 6.3119 521.917 6.90344 522.79C7.50436 523.654 7.80483 524.921 7.80483 526.593C7.80483 528.273 7.50436 529.55 6.90344 530.424C6.3119 531.297 5.44337 531.734 4.29785 531.734ZM4.29785 530.762C5.09596 530.762 5.6828 530.424 6.05838 529.748C6.44335 529.072 6.63584 528.02 6.63584 526.593C6.63584 525.175 6.44805 524.133 6.07247 523.466C5.69689 522.799 5.10535 522.466 4.29785 522.466C3.49974 522.466 2.9082 522.799 2.52323 523.466C2.14765 524.133 1.95986 525.175 1.95986 526.593C1.95986 528.011 2.14765 529.062 2.52323 529.748C2.9082 530.424 3.49974 530.762 4.29785 530.762Z" fill="#9FA2B4"/>
<path d="M44.0855 530.649V531.621H38.494V530.649H40.7052V523.029L38.6489 524.339V523.227L41.2123 521.593H41.8742V530.649H44.0855Z" fill="#9FA2B4"/>
<path d="M80.9299 530.649V531.621H74.4794V530.748L77.9863 526.86C78.4558 526.335 78.7985 525.86 79.0145 525.438C79.2304 525.015 79.3384 524.593 79.3384 524.17C79.3384 523.616 79.1788 523.194 78.8596 522.903C78.5403 522.602 78.0849 522.452 77.4934 522.452C76.5357 522.452 75.5873 522.837 74.6484 523.607L74.2118 522.72C74.6061 522.344 75.1038 522.044 75.7047 521.818C76.3056 521.593 76.9112 521.48 77.5216 521.48C78.4417 521.48 79.1694 521.72 79.7046 522.198C80.2398 522.668 80.5074 523.306 80.5074 524.114C80.5074 524.687 80.376 525.241 80.1131 525.776C79.8595 526.302 79.4323 526.893 78.8314 527.551L75.9723 530.649H80.9299Z" fill="#9FA2B4"/>
<path d="M115.535 526.466C116.127 526.635 116.577 526.926 116.887 527.339C117.197 527.752 117.352 528.273 117.352 528.903C117.352 529.776 117.056 530.466 116.465 530.973C115.873 531.471 115.07 531.719 114.056 531.719C113.408 531.719 112.784 531.611 112.183 531.396C111.591 531.18 111.089 530.874 110.676 530.48L111.127 529.593C112.056 530.363 113.023 530.748 114.028 530.748C114.742 530.748 115.282 530.588 115.648 530.269C116.023 529.95 116.211 529.48 116.211 528.86C116.211 527.63 115.441 527.015 113.901 527.015H112.746V526.043H113.676C114.418 526.043 114.986 525.879 115.38 525.551C115.774 525.222 115.972 524.752 115.972 524.142C115.972 523.598 115.807 523.18 115.479 522.889C115.159 522.598 114.704 522.452 114.113 522.452C113.155 522.452 112.206 522.837 111.268 523.607L110.831 522.72C111.235 522.335 111.728 522.034 112.31 521.818C112.901 521.593 113.516 521.48 114.155 521.48C115.056 521.48 115.774 521.71 116.31 522.17C116.854 522.63 117.127 523.25 117.127 524.029C117.127 524.602 116.986 525.105 116.704 525.536C116.422 525.968 116.033 526.278 115.535 526.466Z" fill="#9FA2B4"/>
<path d="M154.534 529.438H153.013V531.621H151.858V529.438H147.239V528.565L152.07 521.593H153.013V528.48H154.534V529.438ZM151.858 528.48V523.551L148.436 528.48H151.858Z" fill="#9FA2B4"/>
<path d="M187.816 525.325C188.445 525.325 188.994 525.461 189.463 525.734C189.942 525.997 190.309 526.367 190.562 526.846C190.816 527.325 190.942 527.879 190.942 528.508C190.942 529.137 190.801 529.696 190.52 530.184C190.247 530.673 189.853 531.053 189.337 531.325C188.83 531.588 188.233 531.719 187.548 531.719C186.938 531.719 186.337 531.611 185.745 531.396C185.154 531.17 184.656 530.865 184.252 530.48L184.689 529.593C185.618 530.363 186.571 530.748 187.548 530.748C188.252 530.748 188.801 530.55 189.196 530.156C189.6 529.752 189.801 529.208 189.801 528.522C189.801 527.856 189.604 527.32 189.21 526.917C188.816 526.504 188.29 526.297 187.632 526.297C186.675 526.297 185.91 526.687 185.337 527.466H184.534V521.593H190.548V522.551H185.689V526.128C186.243 525.593 186.952 525.325 187.816 525.325Z" fill="#9FA2B4"/>
<path d="M224.434 525.325C225.045 525.325 225.584 525.461 226.054 525.734C226.533 525.997 226.904 526.372 227.167 526.86C227.429 527.339 227.561 527.889 227.561 528.508C227.561 529.128 227.42 529.682 227.138 530.17C226.866 530.658 226.486 531.043 225.998 531.325C225.509 531.597 224.955 531.734 224.336 531.734C223.124 531.734 222.19 531.311 221.533 530.466C220.876 529.621 220.547 528.419 220.547 526.86C220.547 525.734 220.697 524.767 220.998 523.959C221.308 523.152 221.749 522.537 222.322 522.114C222.904 521.691 223.599 521.48 224.406 521.48C224.988 521.48 225.552 521.588 226.096 521.804C226.65 522.02 227.134 522.325 227.547 522.72L227.11 523.607C226.641 523.213 226.19 522.921 225.758 522.734C225.326 522.546 224.885 522.452 224.434 522.452C223.57 522.452 222.899 522.837 222.42 523.607C221.941 524.377 221.702 525.457 221.702 526.846V527.058C221.918 526.522 222.27 526.1 222.758 525.79C223.246 525.48 223.805 525.325 224.434 525.325ZM224.279 530.762C224.918 530.762 225.434 530.56 225.829 530.156C226.223 529.743 226.42 529.198 226.42 528.522C226.42 527.856 226.218 527.32 225.815 526.917C225.42 526.504 224.904 526.297 224.265 526.297C223.608 526.297 223.073 526.504 222.66 526.917C222.246 527.33 222.04 527.865 222.04 528.522C222.04 529.189 222.246 529.729 222.66 530.142C223.073 530.555 223.613 530.762 224.279 530.762Z" fill="#9FA2B4"/>
<path d="M263.941 521.593V522.452L259.237 531.621H257.997L262.673 522.565H257.321V521.593H263.941Z" fill="#9FA2B4"/>
<path d="M298.771 526.466C299.428 526.644 299.935 526.954 300.292 527.396C300.658 527.827 300.841 528.349 300.841 528.959C300.841 529.813 300.518 530.489 299.87 530.987C299.222 531.475 298.349 531.719 297.25 531.719C296.151 531.719 295.278 531.475 294.63 530.987C293.982 530.489 293.659 529.813 293.659 528.959C293.659 528.349 293.842 527.823 294.208 527.381C294.583 526.94 295.095 526.635 295.743 526.466C295.142 526.288 294.682 525.997 294.363 525.593C294.043 525.18 293.884 524.696 293.884 524.142C293.884 523.607 294.025 523.142 294.306 522.748C294.588 522.344 294.982 522.034 295.489 521.818C296.006 521.593 296.593 521.48 297.25 521.48C297.907 521.48 298.489 521.593 298.996 521.818C299.513 522.034 299.912 522.344 300.194 522.748C300.475 523.142 300.616 523.607 300.616 524.142C300.616 524.696 300.452 525.18 300.123 525.593C299.804 525.997 299.353 526.288 298.771 526.466ZM295.039 524.227C295.039 524.762 295.236 525.198 295.63 525.536C296.034 525.865 296.574 526.067 297.25 526.142C297.926 526.067 298.461 525.865 298.856 525.536C299.259 525.198 299.461 524.762 299.461 524.227C299.461 523.673 299.264 523.236 298.87 522.917C298.485 522.598 297.945 522.438 297.25 522.438C296.555 522.438 296.011 522.598 295.616 522.917C295.231 523.236 295.039 523.673 295.039 524.227ZM297.25 530.762C298.039 530.762 298.644 530.602 299.067 530.283C299.489 529.964 299.701 529.499 299.701 528.889C299.701 528.335 299.475 527.893 299.025 527.565C298.583 527.227 297.992 527.02 297.25 526.945C296.508 527.02 295.912 527.227 295.461 527.565C295.02 527.893 294.799 528.335 294.799 528.889C294.799 529.499 295.011 529.964 295.433 530.283C295.856 530.602 296.461 530.762 297.25 530.762Z" fill="#9FA2B4"/>
<path d="M333.559 521.48C334.771 521.48 335.705 521.903 336.362 522.748C337.019 523.593 337.348 524.795 337.348 526.353C337.348 528.053 337.005 529.377 336.32 530.325C335.644 531.264 334.695 531.734 333.475 531.734C332.902 531.734 332.339 531.626 331.785 531.41C331.24 531.194 330.757 530.888 330.334 530.494L330.785 529.607C331.264 530.011 331.719 530.306 332.151 530.494C332.583 530.673 333.019 530.762 333.461 530.762C334.325 530.762 334.991 530.377 335.461 529.607C335.94 528.837 336.179 527.757 336.179 526.367V526.184C335.963 526.71 335.611 527.128 335.123 527.438C334.634 527.738 334.076 527.889 333.447 527.889C332.836 527.889 332.296 527.757 331.827 527.494C331.357 527.222 330.991 526.846 330.728 526.367C330.465 525.879 330.334 525.325 330.334 524.705C330.334 524.086 330.47 523.532 330.742 523.044C331.024 522.555 331.409 522.175 331.897 521.903C332.386 521.621 332.94 521.48 333.559 521.48ZM333.63 526.917C334.287 526.917 334.822 526.71 335.235 526.297C335.648 525.884 335.855 525.349 335.855 524.691C335.855 524.025 335.648 523.485 335.235 523.072C334.822 522.659 334.282 522.452 333.616 522.452C332.977 522.452 332.461 522.659 332.066 523.072C331.672 523.475 331.475 524.015 331.475 524.691C331.475 525.358 331.672 525.898 332.066 526.311C332.461 526.715 332.982 526.917 333.63 526.917Z" fill="#9FA2B4"/>
<path d="M374.998 530.649V531.621H369.407V530.649H371.618V523.029L369.561 524.339V523.227L372.125 521.593H372.787V530.649H374.998ZM380.415 531.734C379.269 531.734 378.396 531.302 377.795 530.438C377.204 529.565 376.908 528.288 376.908 526.607C376.908 524.926 377.204 523.654 377.795 522.79C378.396 521.917 379.269 521.48 380.415 521.48C381.56 521.48 382.429 521.917 383.021 522.79C383.621 523.654 383.922 524.921 383.922 526.593C383.922 528.273 383.621 529.55 383.021 530.424C382.429 531.297 381.56 531.734 380.415 531.734ZM380.415 530.762C381.213 530.762 381.8 530.424 382.175 529.748C382.56 529.072 382.753 528.02 382.753 526.593C382.753 525.175 382.565 524.133 382.19 523.466C381.814 522.799 381.222 522.466 380.415 522.466C379.617 522.466 379.025 522.799 378.64 523.466C378.265 524.133 378.077 525.175 378.077 526.593C378.077 528.011 378.265 529.062 378.64 529.748C379.025 530.424 379.617 530.762 380.415 530.762Z" fill="#9FA2B4"/>
<path d="M422.884 530.649V531.621H417.293V530.649H419.504V523.029L417.448 524.339V523.227L420.011 521.593H420.673V530.649H422.884ZM431.47 530.649V531.621H425.879V530.649H428.09V523.029L426.034 524.339V523.227L428.597 521.593H429.259V530.649H431.47Z" fill="#9FA2B4"/>
<path d="M470.771 530.649V531.621H465.179V530.649H467.391V523.029L465.334 524.339V523.227L467.898 521.593H468.56V530.649H470.771ZM479.582 530.649V531.621H473.132V530.748L476.639 526.86C477.108 526.335 477.451 525.86 477.667 525.438C477.883 525.015 477.991 524.593 477.991 524.17C477.991 523.616 477.831 523.194 477.512 522.903C477.193 522.602 476.737 522.452 476.146 522.452C475.188 522.452 474.24 522.837 473.301 523.607L472.864 522.72C473.258 522.344 473.756 522.044 474.357 521.818C474.958 521.593 475.563 521.48 476.174 521.48C477.094 521.48 477.822 521.72 478.357 522.198C478.892 522.668 479.16 523.306 479.16 524.114C479.16 524.687 479.028 525.241 478.765 525.776C478.512 526.302 478.085 526.893 477.484 527.551L474.625 530.649H479.582Z" fill="#9FA2B4"/>
<path d="M518.657 530.649V531.621H513.066V530.649H515.277V523.029L513.221 524.339V523.227L515.784 521.593H516.446V530.649H518.657ZM525.454 526.466C526.046 526.635 526.497 526.926 526.806 527.339C527.116 527.752 527.271 528.273 527.271 528.903C527.271 529.776 526.975 530.466 526.384 530.973C525.792 531.471 524.99 531.719 523.976 531.719C523.328 531.719 522.703 531.611 522.102 531.396C521.511 531.18 521.008 530.874 520.595 530.48L521.046 529.593C521.976 530.363 522.943 530.748 523.947 530.748C524.661 530.748 525.201 530.588 525.567 530.269C525.943 529.95 526.13 529.48 526.13 528.86C526.13 527.63 525.36 527.015 523.821 527.015H522.666V526.043H523.595C524.337 526.043 524.905 525.879 525.299 525.551C525.694 525.222 525.891 524.752 525.891 524.142C525.891 523.598 525.727 523.18 525.398 522.889C525.079 522.598 524.623 522.452 524.032 522.452C523.074 522.452 522.126 522.837 521.187 523.607L520.75 522.72C521.154 522.335 521.647 522.034 522.229 521.818C522.821 521.593 523.436 521.48 524.074 521.48C524.975 521.48 525.694 521.71 526.229 522.17C526.774 522.63 527.046 523.25 527.046 524.029C527.046 524.602 526.905 525.105 526.623 525.536C526.342 525.968 525.952 526.278 525.454 526.466Z" fill="#9FA2B4"/>
<path d="M566.543 530.649V531.621H560.952V530.649H563.163V523.029L561.107 524.339V523.227L563.67 521.593H564.332V530.649H566.543ZM575.721 529.438H574.2V531.621H573.045V529.438H568.425V528.565L573.256 521.593H574.2V528.48H575.721V529.438ZM573.045 528.48V523.551L569.622 528.48H573.045Z" fill="#9FA2B4"/>
<path d="M614.43 530.649V531.621H608.839V530.649H611.05V523.029L608.994 524.339V523.227L611.557 521.593H612.219V530.649H614.43ZM620.27 525.325C620.899 525.325 621.448 525.461 621.917 525.734C622.396 525.997 622.762 526.367 623.016 526.846C623.27 527.325 623.396 527.879 623.396 528.508C623.396 529.137 623.255 529.696 622.974 530.184C622.701 530.673 622.307 531.053 621.791 531.325C621.284 531.588 620.687 531.719 620.002 531.719C619.392 531.719 618.791 531.611 618.199 531.396C617.608 531.17 617.11 530.865 616.706 530.48L617.143 529.593C618.072 530.363 619.025 530.748 620.002 530.748C620.706 530.748 621.255 530.55 621.65 530.156C622.054 529.752 622.255 529.208 622.255 528.522C622.255 527.856 622.058 527.32 621.664 526.917C621.27 526.504 620.744 526.297 620.086 526.297C619.129 526.297 618.364 526.687 617.791 527.466H616.988V521.593H623.002V522.551H618.143V526.128C618.697 525.593 619.406 525.325 620.27 525.325Z" fill="#9FA2B4"/>
<path d="M662.316 530.649V531.621H656.725V530.649H658.936V523.029L656.88 524.339V523.227L659.443 521.593H660.105V530.649H662.316ZM668.156 525.325C668.766 525.325 669.306 525.461 669.775 525.734C670.254 525.997 670.625 526.372 670.888 526.86C671.151 527.339 671.283 527.889 671.283 528.508C671.283 529.128 671.142 529.682 670.86 530.17C670.588 530.658 670.207 531.043 669.719 531.325C669.231 531.597 668.677 531.734 668.057 531.734C666.846 531.734 665.912 531.311 665.254 530.466C664.597 529.621 664.269 528.419 664.269 526.86C664.269 525.734 664.419 524.767 664.719 523.959C665.029 523.152 665.47 522.537 666.043 522.114C666.625 521.691 667.32 521.48 668.128 521.48C668.71 521.48 669.273 521.588 669.818 521.804C670.372 522.02 670.855 522.325 671.268 522.72L670.832 523.607C670.362 523.213 669.912 522.921 669.48 522.734C669.048 522.546 668.607 522.452 668.156 522.452C667.292 522.452 666.621 522.837 666.142 523.607C665.663 524.377 665.423 525.457 665.423 526.846V527.058C665.639 526.522 665.992 526.1 666.48 525.79C666.968 525.48 667.527 525.325 668.156 525.325ZM668.001 530.762C668.639 530.762 669.156 530.56 669.55 530.156C669.945 529.743 670.142 529.198 670.142 528.522C670.142 527.856 669.94 527.32 669.536 526.917C669.142 526.504 668.625 526.297 667.987 526.297C667.33 526.297 666.794 526.504 666.381 526.917C665.968 527.33 665.761 527.865 665.761 528.522C665.761 529.189 665.968 529.729 666.381 530.142C666.794 530.555 667.334 530.762 668.001 530.762Z" fill="#9FA2B4"/>
<path d="M710.203 530.649V531.621H704.612V530.649H706.823V523.029L704.767 524.339V523.227L707.33 521.593H707.992V530.649H710.203ZM718.93 521.593V522.452L714.226 531.621H712.986L717.662 522.565H712.31V521.593H718.93Z" fill="#9FA2B4"/>
<path d="M758.089 530.649V531.621H752.498V530.649H754.709V523.029L752.653 524.339V523.227L755.216 521.593H755.878V530.649H758.089ZM765.027 526.466C765.685 526.644 766.192 526.954 766.548 527.396C766.915 527.827 767.098 528.349 767.098 528.959C767.098 529.813 766.774 530.489 766.126 530.987C765.478 531.475 764.605 531.719 763.506 531.719C762.408 531.719 761.534 531.475 760.887 530.987C760.239 530.489 759.915 529.813 759.915 528.959C759.915 528.349 760.098 527.823 760.464 527.381C760.84 526.94 761.351 526.635 761.999 526.466C761.398 526.288 760.938 525.997 760.619 525.593C760.3 525.18 760.14 524.696 760.14 524.142C760.14 523.607 760.281 523.142 760.563 522.748C760.844 522.344 761.239 522.034 761.746 521.818C762.262 521.593 762.849 521.48 763.506 521.48C764.163 521.48 764.746 521.593 765.253 521.818C765.769 522.034 766.168 522.344 766.45 522.748C766.732 523.142 766.872 523.607 766.872 524.142C766.872 524.696 766.708 525.18 766.379 525.593C766.06 525.997 765.609 526.288 765.027 526.466ZM761.295 524.227C761.295 524.762 761.492 525.198 761.887 525.536C762.29 525.865 762.83 526.067 763.506 526.142C764.182 526.067 764.717 525.865 765.112 525.536C765.516 525.198 765.717 524.762 765.717 524.227C765.717 523.673 765.52 523.236 765.126 522.917C764.741 522.598 764.201 522.438 763.506 522.438C762.811 522.438 762.267 522.598 761.872 522.917C761.487 523.236 761.295 523.673 761.295 524.227ZM763.506 530.762C764.295 530.762 764.901 530.602 765.323 530.283C765.746 529.964 765.957 529.499 765.957 528.889C765.957 528.335 765.732 527.893 765.281 527.565C764.84 527.227 764.248 527.02 763.506 526.945C762.764 527.02 762.168 527.227 761.718 527.565C761.276 527.893 761.056 528.335 761.056 528.889C761.056 529.499 761.267 529.964 761.689 530.283C762.112 530.602 762.718 530.762 763.506 530.762Z" fill="#9FA2B4"/>
<path d="M805.976 530.649V531.621H800.385V530.649H802.596V523.029L800.539 524.339V523.227L803.103 521.593H803.765V530.649H805.976ZM811.083 521.48C812.294 521.48 813.229 521.903 813.886 522.748C814.543 523.593 814.872 524.795 814.872 526.353C814.872 528.053 814.529 529.377 813.844 530.325C813.168 531.264 812.219 531.734 810.999 531.734C810.426 531.734 809.862 531.626 809.308 531.41C808.764 531.194 808.28 530.888 807.858 530.494L808.309 529.607C808.787 530.011 809.243 530.306 809.675 530.494C810.107 530.673 810.543 530.762 810.985 530.762C811.848 530.762 812.515 530.377 812.984 529.607C813.463 528.837 813.703 527.757 813.703 526.367V526.184C813.487 526.71 813.135 527.128 812.646 527.438C812.158 527.738 811.6 527.889 810.97 527.889C810.36 527.889 809.82 527.757 809.351 527.494C808.881 527.222 808.515 526.846 808.252 526.367C807.989 525.879 807.858 525.325 807.858 524.705C807.858 524.086 807.994 523.532 808.266 523.044C808.548 522.555 808.933 522.175 809.421 521.903C809.909 521.621 810.463 521.48 811.083 521.48ZM811.154 526.917C811.811 526.917 812.346 526.71 812.759 526.297C813.172 525.884 813.379 525.349 813.379 524.691C813.379 524.025 813.172 523.485 812.759 523.072C812.346 522.659 811.806 522.452 811.139 522.452C810.501 522.452 809.985 522.659 809.59 523.072C809.196 523.475 808.999 524.015 808.999 524.691C808.999 525.358 809.196 525.898 809.59 526.311C809.985 526.715 810.506 526.917 811.154 526.917Z" fill="#9FA2B4"/>
<path d="M854.088 530.649V531.621H847.637V530.748L851.144 526.86C851.613 526.335 851.956 525.86 852.172 525.438C852.388 525.015 852.496 524.593 852.496 524.17C852.496 523.616 852.336 523.194 852.017 522.903C851.698 522.602 851.243 522.452 850.651 522.452C849.693 522.452 848.745 522.837 847.806 523.607L847.369 522.72C847.764 522.344 848.261 522.044 848.862 521.818C849.463 521.593 850.069 521.48 850.679 521.48C851.599 521.48 852.327 521.72 852.862 522.198C853.397 522.668 853.665 523.306 853.665 524.114C853.665 524.687 853.534 525.241 853.271 525.776C853.017 526.302 852.59 526.893 851.989 527.551L849.13 530.649H854.088ZM859.279 531.734C858.134 531.734 857.26 531.302 856.66 530.438C856.068 529.565 855.772 528.288 855.772 526.607C855.772 524.926 856.068 523.654 856.66 522.79C857.26 521.917 858.134 521.48 859.279 521.48C860.425 521.48 861.293 521.917 861.885 522.79C862.486 523.654 862.786 524.921 862.786 526.593C862.786 528.273 862.486 529.55 861.885 530.424C861.293 531.297 860.425 531.734 859.279 531.734ZM859.279 530.762C860.077 530.762 860.664 530.424 861.04 529.748C861.425 529.072 861.617 528.02 861.617 526.593C861.617 525.175 861.429 524.133 861.054 523.466C860.678 522.799 860.087 522.466 859.279 522.466C858.481 522.466 857.89 522.799 857.505 523.466C857.129 524.133 856.941 525.175 856.941 526.593C856.941 528.011 857.129 529.062 857.505 529.748C857.89 530.424 858.481 530.762 859.279 530.762Z" fill="#9FA2B4"/>
<path d="M901.974 530.649V531.621H895.523V530.748L899.03 526.86C899.5 526.335 899.842 525.86 900.058 525.438C900.274 525.015 900.382 524.593 900.382 524.17C900.382 523.616 900.223 523.194 899.903 522.903C899.584 522.602 899.129 522.452 898.537 522.452C897.58 522.452 896.631 522.837 895.692 523.607L895.256 522.72C895.65 522.344 896.148 522.044 896.749 521.818C897.349 521.593 897.955 521.48 898.565 521.48C899.486 521.48 900.213 521.72 900.748 522.198C901.284 522.668 901.551 523.306 901.551 524.114C901.551 524.687 901.42 525.241 901.157 525.776C900.903 526.302 900.476 526.893 899.875 527.551L897.016 530.649H901.974ZM910.334 530.649V531.621H904.743V530.649H906.954V523.029L904.898 524.339V523.227L907.461 521.593H908.123V530.649H910.334Z" fill="#9FA2B4"/>
<path d="M949.861 530.649V531.621H943.41V530.748L946.917 526.86C947.386 526.335 947.729 525.86 947.945 525.438C948.161 525.015 948.269 524.593 948.269 524.17C948.269 523.616 948.109 523.194 947.79 522.903C947.471 522.602 947.016 522.452 946.424 522.452C945.466 522.452 944.518 522.837 943.579 523.607L943.142 522.72C943.537 522.344 944.034 522.044 944.635 521.818C945.236 521.593 945.842 521.48 946.452 521.48C947.372 521.48 948.1 521.72 948.635 522.198C949.17 522.668 949.438 523.306 949.438 524.114C949.438 524.687 949.307 525.241 949.044 525.776C948.79 526.302 948.363 526.893 947.762 527.551L944.903 530.649H949.861ZM958.446 530.649V531.621H951.996V530.748L955.503 526.86C955.972 526.335 956.315 525.86 956.531 525.438C956.747 525.015 956.855 524.593 956.855 524.17C956.855 523.616 956.695 523.194 956.376 522.903C956.057 522.602 955.601 522.452 955.01 522.452C954.052 522.452 953.104 522.837 952.165 523.607L951.728 522.72C952.123 522.344 952.62 522.044 953.221 521.818C953.822 521.593 954.428 521.48 955.038 521.48C955.958 521.48 956.686 521.72 957.221 522.198C957.756 522.668 958.024 523.306 958.024 524.114C958.024 524.687 957.892 525.241 957.63 525.776C957.376 526.302 956.949 526.893 956.348 527.551L953.489 530.649H958.446Z" fill="#9FA2B4"/>
</g>
<path d="M962.029 488.072C960.884 488.072 960.01 487.64 959.409 486.777C958.818 485.903 958.522 484.626 958.522 482.946C958.522 481.265 958.818 479.993 959.409 479.129C960.01 478.256 960.884 477.819 962.029 477.819C963.175 477.819 964.043 478.256 964.635 479.129C965.236 479.993 965.536 481.26 965.536 482.932C965.536 484.612 965.236 485.889 964.635 486.763C964.043 487.636 963.175 488.072 962.029 488.072ZM962.029 487.101C962.827 487.101 963.414 486.763 963.79 486.087C964.175 485.41 964.367 484.359 964.367 482.932C964.367 481.514 964.179 480.472 963.804 479.805C963.428 479.138 962.837 478.805 962.029 478.805C961.231 478.805 960.639 479.138 960.255 479.805C959.879 480.472 959.691 481.514 959.691 482.932C959.691 484.349 959.879 485.401 960.255 486.087C960.639 486.763 961.231 487.101 962.029 487.101Z" fill="#9FA2B4"/>
<path d="M956.612 408.116V409.088H951.021V408.116H953.232V400.496L951.176 401.806V400.694L953.739 399.06H954.401V408.116H956.612ZM962.029 409.201C960.884 409.201 960.01 408.769 959.41 407.905C958.818 407.032 958.522 405.755 958.522 404.074C958.522 402.393 958.818 401.121 959.41 400.257C960.01 399.384 960.884 398.947 962.029 398.947C963.175 398.947 964.043 399.384 964.635 400.257C965.236 401.121 965.536 402.388 965.536 404.06C965.536 405.741 965.236 407.018 964.635 407.891C964.043 408.764 963.175 409.201 962.029 409.201ZM962.029 408.229C962.827 408.229 963.414 407.891 963.79 407.215C964.175 406.539 964.367 405.487 964.367 404.06C964.367 402.642 964.179 401.6 963.804 400.933C963.428 400.266 962.837 399.933 962.029 399.933C961.231 399.933 960.64 400.266 960.255 400.933C959.879 401.6 959.691 402.642 959.691 404.06C959.691 405.478 959.879 406.529 960.255 407.215C960.64 407.891 961.231 408.229 962.029 408.229Z" fill="#9FA2B4"/>
<path d="M956.838 329.244V330.216H950.387V329.343L953.894 325.456C954.363 324.93 954.706 324.456 954.922 324.033C955.138 323.611 955.246 323.188 955.246 322.766C955.246 322.212 955.086 321.789 954.767 321.498C954.448 321.198 953.993 321.047 953.401 321.047C952.443 321.047 951.495 321.432 950.556 322.202L950.119 321.315C950.514 320.939 951.011 320.639 951.612 320.413C952.213 320.188 952.819 320.075 953.429 320.075C954.349 320.075 955.077 320.315 955.612 320.794C956.147 321.263 956.415 321.902 956.415 322.709C956.415 323.282 956.284 323.836 956.021 324.371C955.767 324.897 955.34 325.489 954.739 326.146L951.88 329.244H956.838ZM962.029 330.329C960.884 330.329 960.01 329.897 959.41 329.033C958.818 328.16 958.522 326.883 958.522 325.202C958.522 323.521 958.818 322.249 959.41 321.385C960.01 320.512 960.884 320.075 962.029 320.075C963.175 320.075 964.043 320.512 964.635 321.385C965.236 322.249 965.536 323.517 965.536 325.188C965.536 326.869 965.236 328.146 964.635 329.019C964.043 329.892 963.175 330.329 962.029 330.329ZM962.029 329.357C962.827 329.357 963.414 329.019 963.79 328.343C964.175 327.667 964.367 326.615 964.367 325.188C964.367 323.77 964.179 322.728 963.804 322.061C963.428 321.395 962.837 321.061 962.029 321.061C961.231 321.061 960.64 321.395 960.255 322.061C959.879 322.728 959.691 323.77 959.691 325.188C959.691 326.606 959.879 327.657 960.255 328.343C960.64 329.019 961.231 329.357 962.029 329.357Z" fill="#9FA2B4"/>
<path d="M954.824 246.19C955.415 246.359 955.866 246.65 956.176 247.063C956.486 247.476 956.64 247.997 956.64 248.626C956.64 249.499 956.345 250.189 955.753 250.696C955.162 251.194 954.359 251.443 953.345 251.443C952.697 251.443 952.072 251.335 951.472 251.119C950.88 250.903 950.378 250.598 949.965 250.204L950.415 249.316C951.345 250.086 952.312 250.471 953.317 250.471C954.03 250.471 954.57 250.312 954.936 249.992C955.312 249.673 955.5 249.204 955.5 248.584C955.5 247.354 954.73 246.739 953.19 246.739H952.035V245.767H952.964C953.706 245.767 954.274 245.603 954.669 245.274C955.063 244.945 955.26 244.476 955.26 243.866C955.26 243.321 955.096 242.903 954.767 242.612C954.448 242.321 953.993 242.176 953.401 242.176C952.443 242.176 951.495 242.56 950.556 243.33L950.119 242.443C950.523 242.058 951.016 241.758 951.598 241.542C952.19 241.316 952.805 241.204 953.443 241.204C954.345 241.204 955.063 241.434 955.598 241.894C956.143 242.354 956.415 242.974 956.415 243.753C956.415 244.326 956.274 244.828 955.993 245.26C955.711 245.692 955.321 246.002 954.824 246.19ZM962.029 251.457C960.884 251.457 960.01 251.025 959.41 250.161C958.818 249.288 958.522 248.011 958.522 246.33C958.522 244.65 958.818 243.377 959.41 242.514C960.01 241.64 960.884 241.204 962.029 241.204C963.175 241.204 964.043 241.64 964.635 242.514C965.236 243.377 965.536 244.645 965.536 246.316C965.536 247.997 965.236 249.274 964.635 250.147C964.043 251.02 963.175 251.457 962.029 251.457ZM962.029 250.485C962.827 250.485 963.414 250.147 963.79 249.471C964.175 248.795 964.367 247.743 964.367 246.316C964.367 244.898 964.179 243.856 963.804 243.19C963.428 242.523 962.837 242.19 962.029 242.19C961.231 242.19 960.64 242.523 960.255 243.19C959.879 243.856 959.691 244.898 959.691 246.316C959.691 247.734 959.879 248.786 960.255 249.471C960.64 250.147 961.231 250.485 962.029 250.485Z" fill="#9FA2B4"/>
<path d="M957.204 170.289H955.683V172.473H954.528V170.289H949.908V169.416L954.739 162.445H955.683V169.332H957.204V170.289ZM954.528 169.332V164.402L951.105 169.332H954.528ZM962.029 172.585C960.884 172.585 960.01 172.153 959.41 171.289C958.818 170.416 958.522 169.139 958.522 167.459C958.522 165.778 958.818 164.506 959.41 163.642C960.01 162.768 960.884 162.332 962.029 162.332C963.175 162.332 964.043 162.768 964.635 163.642C965.236 164.506 965.536 165.773 965.536 167.444C965.536 169.125 965.236 170.402 964.635 171.275C964.043 172.149 963.175 172.585 962.029 172.585ZM962.029 171.613C962.827 171.613 963.414 171.275 963.79 170.599C964.175 169.923 964.367 168.872 964.367 167.444C964.367 166.027 964.179 164.984 963.804 164.318C963.428 163.651 962.837 163.318 962.029 163.318C961.231 163.318 960.64 163.651 960.255 164.318C959.879 164.984 959.691 166.027 959.691 167.444C959.691 168.862 959.879 169.914 960.255 170.599C960.64 171.275 961.231 171.613 962.029 171.613Z" fill="#9FA2B4"/>
<path d="M953.866 87.3051C954.495 87.3051 955.044 87.4412 955.514 87.7135C955.993 87.9764 956.359 88.3473 956.612 88.8262C956.866 89.305 956.993 89.859 956.993 90.4881C956.993 91.1172 956.852 91.6759 956.57 92.1641C956.298 92.6524 955.903 93.0327 955.387 93.305C954.88 93.5679 954.284 93.6993 953.598 93.6993C952.988 93.6993 952.387 93.5913 951.795 93.3754C951.204 93.15 950.706 92.8449 950.303 92.4599L950.739 91.5726C951.669 92.3425 952.622 92.7275 953.598 92.7275C954.302 92.7275 954.852 92.5303 955.246 92.136C955.65 91.7322 955.852 91.1876 955.852 90.5022C955.852 89.8355 955.655 89.3003 955.26 88.8966C954.866 88.4835 954.34 88.2769 953.683 88.2769C952.725 88.2769 951.96 88.6666 951.387 89.4459H950.584V83.5728H956.598V84.5305H951.739V88.1079C952.293 87.5727 953.002 87.3051 953.866 87.3051ZM962.029 93.7134C960.884 93.7134 960.01 93.2815 959.41 92.4177C958.818 91.5444 958.522 90.2675 958.522 88.5867C958.522 86.906 958.818 85.6337 959.41 84.7699C960.01 83.8967 960.884 83.4601 962.029 83.4601C963.175 83.4601 964.043 83.8967 964.635 84.7699C965.236 85.6337 965.536 86.9013 965.536 88.5727C965.536 90.2534 965.236 91.5304 964.635 92.4036C964.043 93.2768 963.175 93.7134 962.029 93.7134ZM962.029 92.7416C962.827 92.7416 963.414 92.4036 963.79 91.7275C964.175 91.0515 964.367 89.9999 964.367 88.5727C964.367 87.1548 964.179 86.1126 963.804 85.446C963.428 84.7793 962.837 84.446 962.029 84.446C961.231 84.446 960.64 84.7793 960.255 85.446C959.879 86.1126 959.691 87.1548 959.691 88.5727C959.691 89.9905 959.879 91.0421 960.255 91.7275C960.64 92.4036 961.231 92.7416 962.029 92.7416Z" fill="#9FA2B4"/>
<path d="M953.866 8.43328C954.477 8.43328 955.017 8.56943 955.486 8.84173C955.965 9.10463 956.336 9.48021 956.599 9.96847C956.862 10.4473 956.993 10.9966 956.993 11.6163C956.993 12.236 956.852 12.79 956.571 13.2783C956.298 13.7665 955.918 14.1515 955.43 14.4332C954.941 14.7055 954.387 14.8416 953.768 14.8416C952.556 14.8416 951.622 14.4191 950.965 13.574C950.308 12.729 949.979 11.5271 949.979 9.96847C949.979 8.84173 950.129 7.87461 950.43 7.06711C950.74 6.25961 951.181 5.6446 951.754 5.22207C952.336 4.79955 953.031 4.58828 953.838 4.58828C954.42 4.58828 954.984 4.69626 955.528 4.91222C956.082 5.12818 956.566 5.43334 956.979 5.8277L956.542 6.71501C956.073 6.32065 955.622 6.02957 955.19 5.84178C954.758 5.65399 954.317 5.5601 953.866 5.5601C953.002 5.5601 952.331 5.94507 951.852 6.71501C951.373 7.48494 951.134 8.56474 951.134 9.95438V10.1656C951.35 9.63044 951.702 9.20792 952.19 8.89806C952.679 8.58821 953.237 8.43328 953.866 8.43328ZM953.711 13.8698C954.35 13.8698 954.866 13.6679 955.261 13.2642C955.655 12.851 955.852 12.3065 955.852 11.6304C955.852 10.9638 955.65 10.4286 955.247 10.0248C954.852 9.61167 954.336 9.4051 953.697 9.4051C953.04 9.4051 952.505 9.61167 952.092 10.0248C951.679 10.4379 951.472 10.9731 951.472 11.6304C951.472 12.2971 951.679 12.837 952.092 13.2501C952.505 13.6632 953.045 13.8698 953.711 13.8698ZM962.03 14.8416C960.884 14.8416 960.011 14.4097 959.41 13.5459C958.818 12.6726 958.523 11.3957 958.523 9.71495C958.523 8.03423 958.818 6.76195 959.41 5.89812C960.011 5.0249 960.884 4.58828 962.03 4.58828C963.175 4.58828 964.044 5.0249 964.635 5.89812C965.236 6.76195 965.537 8.02953 965.537 9.70087C965.537 11.3816 965.236 12.6586 964.635 13.5318C964.044 14.405 963.175 14.8416 962.03 14.8416ZM962.03 13.8698C962.828 13.8698 963.415 13.5318 963.79 12.8557C964.175 12.1797 964.368 11.1281 964.368 9.70087C964.368 8.28305 964.18 7.24082 963.804 6.57416C963.429 5.90751 962.837 5.57418 962.03 5.57418C961.232 5.57418 960.64 5.90751 960.255 6.57416C959.879 7.24082 959.692 8.28305 959.692 9.70087C959.692 11.1187 959.879 12.1703 960.255 12.8557C960.64 13.5318 961.232 13.8698 962.03 13.8698Z" fill="#9FA2B4"/>
<mask id="mask0" mask-type="alpha" maskUnits="userSpaceOnUse" x="0" y="27" width="812" height="474">
<rect x="0.0698242" y="27.489" width="811.253" height="473.231" fill="#C4C4C4"/>
</mask>
<g mask="url(#mask0)">
<path opacity="0.1" d="M133.133 266.761C67.053 264.423 4.21495 374.257 -12.791 420.055V564.803H839.095V203.542C760.258 200.021 735.327 120.593 674.895 120.593C614.463 120.593 559.902 235.577 529.129 295.992C503.863 349.781 471.633 361.28 458.676 360.305C398.426 362.644 352.591 242.399 337.205 181.984C323.6 114.161 308.284 100.131 300.764 100.131C288.146 100.087 269.181 120.009 249.746 187.83C230.31 255.651 199.538 274.555 186.581 275.53C168.458 276.893 146.9 266.761 133.133 266.761Z" fill="url(#paint0_linear)"/>
<path d="M-12.1714 245.651C14.5514 232.547 34.4239 230.763 50.3546 235.223C66.3236 239.695 78.5923 250.507 89.9781 263.162C95.6759 269.495 101.093 276.219 106.662 282.828C112.212 289.415 117.889 295.858 124.028 301.512C136.328 312.842 150.556 321.074 169.508 321.074V318.257C151.498 318.257 137.92 310.478 125.937 299.44C119.934 293.911 114.35 287.581 108.816 281.013C103.301 274.468 97.81 267.656 92.0721 261.278C80.5865 248.512 67.8726 237.203 51.1141 232.511C34.3171 227.808 13.717 229.818 -13.4116 243.122L-12.1714 245.651ZM169.508 321.074C188.265 321.074 201.131 316.171 211.175 308.542C221.156 300.961 228.272 290.737 235.594 280.357C242.953 269.927 250.558 259.276 261.586 250.434C272.584 241.618 287.048 234.557 308.151 231.477L307.744 228.689C286.173 231.838 271.235 239.089 259.824 248.237C248.445 257.359 240.635 268.326 233.293 278.734C225.914 289.192 219.043 299.029 209.472 306.299C199.964 313.52 187.712 318.257 169.508 318.257V321.074ZM308.151 231.477C329.021 228.431 348.03 235.336 365.978 247.592C383.949 259.864 400.735 277.418 417.119 295.48C433.456 313.492 449.415 332.035 465.606 346.041C481.791 360.041 498.458 369.736 516.28 369.736V366.919C499.492 366.919 483.48 357.777 467.449 343.91C451.425 330.049 435.63 311.695 419.205 293.588C402.827 275.532 385.843 257.746 367.566 245.266C349.266 232.768 329.548 225.507 307.744 228.689L308.151 231.477ZM516.28 369.736C534.314 369.736 549.677 356.629 562.872 337.663C576.108 318.638 587.434 293.333 597.311 268.14C602.254 255.533 606.843 242.929 611.131 231.13C615.422 219.322 619.406 208.33 623.151 198.913C626.901 189.482 630.38 181.707 633.649 176.306C635.284 173.603 636.827 171.564 638.273 170.215C639.73 168.857 640.945 168.331 641.951 168.331V165.515C639.933 165.515 638.06 166.563 636.353 168.155C634.635 169.756 632.936 172.044 631.239 174.848C627.842 180.461 624.291 188.421 620.533 197.872C616.77 207.337 612.769 218.373 608.483 230.168C604.195 241.97 599.617 254.542 594.689 267.111C584.825 292.269 573.596 317.315 560.56 336.054C547.482 354.851 532.855 366.919 516.28 366.919V369.736ZM641.951 168.331C644.384 168.331 646.445 169.581 648.343 172.148C650.268 174.75 651.905 178.56 653.431 183.309C654.951 188.038 656.323 193.573 657.77 199.562C659.212 205.534 660.726 211.946 662.52 218.358C666.1 231.16 670.843 244.149 678.551 253.95C686.315 263.821 697.08 270.442 712.515 270.442V267.625C698.044 267.625 688.06 261.483 680.765 252.208C673.416 242.864 668.792 230.325 665.232 217.599C663.456 211.247 661.956 204.895 660.508 198.901C659.064 192.924 657.67 187.29 656.113 182.447C654.562 177.623 652.813 173.455 650.608 170.473C648.377 167.456 645.565 165.515 641.951 165.515V168.331ZM712.515 270.442C742.938 270.442 767.589 253.294 791.85 236.204C816.254 219.012 840.271 201.874 869.827 200.724L869.717 197.909C839.182 199.098 814.477 216.819 790.228 233.901C765.835 251.084 741.903 267.625 712.515 267.625V270.442Z" fill="#DFE0EB"/>
<path d="M132.477 266.761L132.427 268.169C132.444 268.169 132.461 268.17 132.477 268.17L132.477 266.761ZM185.684 275.53L185.791 276.934L185.684 275.53ZM299.354 100.131L299.349 101.539L299.354 101.539V100.131ZM335.632 181.984L334.25 182.259C334.255 182.283 334.26 182.306 334.266 182.33L335.632 181.984ZM456.557 360.305L456.663 358.901C456.609 358.897 456.556 358.896 456.502 358.898L456.557 360.305ZM526.693 295.992L525.437 295.355C525.43 295.369 525.424 295.382 525.418 295.396L526.693 295.992ZM-11.47 420.544C-3.05353 397.775 16.7471 358.998 42.6283 326.23C55.5663 309.849 69.9838 295.021 85.2111 284.443C100.441 273.863 116.389 267.599 132.427 268.169L132.527 265.354C115.674 264.755 99.1334 271.342 83.604 282.13C68.0715 292.919 53.4577 307.974 40.4177 324.484C14.3429 357.497 -5.59898 396.537 -14.1121 419.567L-11.47 420.544ZM132.477 268.17C139.103 268.169 147.656 270.629 157.109 273.022C166.429 275.381 176.512 277.635 185.791 276.934L185.578 274.125C176.815 274.787 167.147 272.657 157.8 270.291C148.586 267.959 139.556 265.353 132.477 265.353L132.477 268.17ZM185.791 276.934C192.743 276.409 203.94 271.156 215.765 257.676C227.623 244.159 240.203 222.276 249.92 188.217L247.211 187.444C237.58 221.205 225.168 242.685 213.648 255.819C202.094 268.99 191.524 273.676 185.578 274.125L185.791 276.934ZM249.92 188.217C259.577 154.366 269.088 132.581 277.687 119.297C286.339 105.932 293.83 101.52 299.349 101.539L299.359 98.7222C292.317 98.6977 284.088 104.225 275.323 117.766C266.506 131.386 256.902 153.473 247.211 187.444L249.92 188.217ZM299.354 101.539C300.776 101.539 302.815 102.209 305.345 104.439C307.872 106.667 310.809 110.387 313.981 116.29C320.326 128.099 327.49 148.407 334.25 182.259L337.013 181.708C330.229 147.738 322.998 127.12 316.462 114.957C313.193 108.875 310.068 104.848 307.208 102.326C304.349 99.8062 301.675 98.7222 299.354 98.7222L299.354 101.539ZM334.266 182.33C341.944 212.614 357.219 257.903 378.116 295.363C388.563 314.09 400.454 330.933 413.56 342.963C426.665 354.992 441.109 362.317 456.612 361.713L456.502 358.898C442.015 359.463 428.263 352.635 415.465 340.887C402.668 329.141 390.948 312.585 380.576 293.991C359.834 256.809 344.636 211.768 336.997 181.637L334.266 182.33ZM456.451 361.71C470.161 362.746 502.682 350.665 527.969 296.589L525.418 295.396C500.399 348.897 468.75 359.814 456.663 358.901L456.451 361.71ZM527.95 296.629C543.287 266.381 564.475 222.636 589.337 186.434C601.766 168.336 615.069 152.192 628.961 140.584C642.86 128.971 657.223 122.001 671.804 122.001V119.185C656.304 119.185 641.318 126.589 627.155 138.423C612.985 150.263 599.514 166.64 587.015 184.84C562.021 221.234 540.734 265.188 525.437 295.355L527.95 296.629ZM671.804 122.001C701.253 122.001 722.076 141.402 745.744 161.814C769.29 182.12 795.439 203.165 835.203 204.949L835.329 202.135C796.611 200.398 771.109 179.969 747.584 159.681C724.181 139.498 702.514 119.185 671.804 119.185V122.001Z" fill="#f39325"/>
<circle opacity="0.16" cx="583.157" cy="189.458" r="18.3095" stroke="#f39325" stroke-width="2.81685"/>
<g filter="url(#filter0_d)">
<circle cx="583.157" cy="189.458" r="9.85897" fill="white"/>
<circle cx="583.157" cy="189.458" r="7.04212" stroke="#f39325" stroke-width="5.6337"/>
</g>
<g filter="url(#filter1_d)">
<mask id="path-46-outside-1" maskUnits="userSpaceOnUse" x="537.087" y="102.544" width="92" height="53" fill="black">
<rect fill="white" x="537.087" y="102.544" width="92" height="53"/>
<path fill-rule="evenodd" clip-rule="evenodd" d="M543.721 103.544H622.593C625.704 103.544 628.227 106.066 628.227 109.178V140.163C628.227 143.274 625.704 145.797 622.593 145.797H543.721C540.61 145.797 538.087 143.274 538.087 140.163V109.178C538.087 106.066 540.61 103.544 543.721 103.544ZM583.524 153.933L593.016 145.797H573.298L582.79 153.933C583.001 154.114 583.313 154.114 583.524 153.933Z"/>
</mask>
<path fill-rule="evenodd" clip-rule="evenodd" d="M543.721 103.544H622.593C625.704 103.544 628.227 106.066 628.227 109.178V140.163C628.227 143.274 625.704 145.797 622.593 145.797H543.721C540.61 145.797 538.087 143.274 538.087 140.163V109.178C538.087 106.066 540.61 103.544 543.721 103.544ZM583.524 153.933L593.016 145.797H573.298L582.79 153.933C583.001 154.114 583.313 154.114 583.524 153.933Z" fill="white"/>
<path d="M593.016 145.797L593.474 146.331L594.92 145.092H593.016V145.797ZM583.524 153.933L583.982 154.468L583.524 153.933ZM573.298 145.797V145.092H571.394L572.84 146.331L573.298 145.797ZM582.79 153.933L582.332 154.468L582.332 154.468L582.79 153.933ZM622.593 102.84H543.721V104.248H622.593V102.84ZM628.931 109.178C628.931 105.677 626.093 102.84 622.593 102.84V104.248C625.315 104.248 627.522 106.455 627.522 109.178H628.931ZM628.931 140.163V109.178H627.522V140.163H628.931ZM622.593 146.501C626.093 146.501 628.931 143.663 628.931 140.163H627.522C627.522 142.885 625.315 145.092 622.593 145.092V146.501ZM543.721 146.501H622.593V145.092H543.721V146.501ZM537.383 140.163C537.383 143.663 540.221 146.501 543.721 146.501V145.092C540.999 145.092 538.792 142.885 538.792 140.163H537.383ZM537.383 109.178V140.163H538.792V109.178H537.383ZM543.721 102.84C540.221 102.84 537.383 105.677 537.383 109.178H538.792C538.792 106.455 540.999 104.248 543.721 104.248V102.84ZM592.558 145.262L583.065 153.398L583.982 154.468L593.474 146.331L592.558 145.262ZM573.298 146.501H593.016V145.092H573.298V146.501ZM583.249 153.398L573.756 145.262L572.84 146.331L582.332 154.468L583.249 153.398ZM583.065 153.398C583.118 153.353 583.196 153.353 583.249 153.398L582.332 154.468C582.807 154.875 583.507 154.875 583.982 154.468L583.065 153.398Z" fill="#DFE0EB" mask="url(#path-46-outside-1)"/>
</g>
<path d="M579.038 125.186C579.853 125.423 580.477 125.83 580.911 126.409C581.345 126.987 581.562 127.717 581.562 128.597C581.562 129.82 581.128 130.786 580.26 131.496C579.406 132.193 578.243 132.541 576.77 132.541C575.837 132.541 574.943 132.396 574.089 132.107C573.247 131.805 572.544 131.384 571.979 130.845L572.708 129.347C573.97 130.372 575.305 130.885 576.711 130.885C578.63 130.885 579.59 130.076 579.59 128.459C579.59 127.671 579.34 127.086 578.841 126.704C578.341 126.31 577.585 126.113 576.573 126.113H574.858V124.457H576.258C577.23 124.457 577.973 124.253 578.486 123.845C578.998 123.438 579.255 122.846 579.255 122.071C579.255 121.361 579.038 120.815 578.604 120.434C578.183 120.053 577.585 119.862 576.81 119.862C575.495 119.862 574.194 120.375 572.906 121.4L572.176 119.902C572.728 119.376 573.425 118.962 574.266 118.659C575.12 118.357 576.001 118.206 576.908 118.206C578.223 118.206 579.268 118.535 580.043 119.192C580.832 119.836 581.226 120.71 581.226 121.814C581.226 122.616 581.036 123.313 580.655 123.904C580.273 124.496 579.734 124.923 579.038 125.186ZM591.32 125.186C592.227 125.436 592.93 125.863 593.43 126.468C593.942 127.072 594.199 127.802 594.199 128.656C594.199 129.866 593.732 130.819 592.799 131.516C591.879 132.199 590.636 132.541 589.072 132.541C587.508 132.541 586.259 132.199 585.326 131.516C584.406 130.819 583.945 129.866 583.945 128.656C583.945 127.789 584.202 127.053 584.714 126.448C585.227 125.843 585.944 125.423 586.864 125.186C586.049 124.923 585.411 124.509 584.951 123.944C584.504 123.379 584.281 122.715 584.281 121.952C584.281 121.203 584.484 120.546 584.892 119.981C585.299 119.415 585.865 118.982 586.588 118.679C587.311 118.364 588.139 118.206 589.072 118.206C590.005 118.206 590.834 118.364 591.557 118.679C592.28 118.982 592.845 119.415 593.252 119.981C593.66 120.546 593.864 121.203 593.864 121.952C593.864 122.715 593.64 123.385 593.193 123.964C592.746 124.529 592.122 124.936 591.32 125.186ZM586.233 122.13C586.233 122.813 586.489 123.372 587.002 123.806C587.514 124.227 588.205 124.496 589.072 124.614C589.94 124.496 590.63 124.227 591.143 123.806C591.655 123.372 591.912 122.813 591.912 122.13C591.912 121.407 591.655 120.848 591.143 120.454C590.643 120.046 589.953 119.843 589.072 119.843C588.191 119.843 587.495 120.046 586.982 120.454C586.483 120.848 586.233 121.407 586.233 122.13ZM589.072 130.904C590.084 130.904 590.866 130.701 591.419 130.293C591.971 129.886 592.247 129.294 592.247 128.518C592.247 127.795 591.958 127.224 591.379 126.803C590.814 126.369 590.045 126.093 589.072 125.975C588.099 126.093 587.324 126.369 586.745 126.803C586.18 127.224 585.898 127.795 585.898 128.518C585.898 129.294 586.174 129.886 586.726 130.293C587.278 130.701 588.06 130.904 589.072 130.904Z" fill="#252733"/>
</g>
</g>
<defs>
<filter id="filter0_d" x="570.481" y="178.19" width="25.3516" height="25.3516" filterUnits="userSpaceOnUse" color-interpolation-filters="sRGB">
<feFlood flood-opacity="0" result="BackgroundImageFix"/>
<feColorMatrix in="SourceAlpha" type="matrix" values="0 0 0 0 0 0 0 0 0 0 0 0 0 0 0 0 0 0 127 0"/>
<feOffset dy="1.40842"/>
<feGaussianBlur stdDeviation="1.40842"/>
<feColorMatrix type="matrix" values="0 0 0 0 0.215686 0 0 0 0 0.317647 0 0 0 0 1 0 0 0 0.2 0"/>
<feBlend mode="normal" in2="BackgroundImageFix" result="effect1_dropShadow"/>
<feBlend mode="normal" in="SourceGraphic" in2="effect1_dropShadow" result="shape"/>
</filter>
<filter id="filter1_d" x="531.75" y="98.6144" width="102.815" height="63.2005" filterUnits="userSpaceOnUse" color-interpolation-filters="sRGB">
<feFlood flood-opacity="0" result="BackgroundImageFix"/>
<feColorMatrix in="SourceAlpha" type="matrix" values="0 0 0 0 0 0 0 0 0 0 0 0 0 0 0 0 0 0 127 0"/>
<feOffset dy="1.40842"/>
<feGaussianBlur stdDeviation="2.81685"/>
<feColorMatrix type="matrix" values="0 0 0 0 0 0 0 0 0 0 0 0 0 0 0 0 0 0 0.08 0"/>
<feBlend mode="normal" in2="BackgroundImageFix" result="effect1_dropShadow"/>
<feBlend mode="normal" in="SourceGraphic" in2="effect1_dropShadow" result="shape"/>
</filter>
<linearGradient id="paint0_linear" x1="-0.485044" y1="345.089" x2="811.467" y2="345.761" gradientUnits="userSpaceOnUse">
<stop stop-color="#f39325"/>
<stop offset="1" stop-color="#f39325" stop-opacity="0"/>
</linearGradient>
<clipPath id="clip0">
<rect width="966.18" height="535.201" fill="white" transform="translate(0.0698242 0.728943)"/>
</clipPath>
<clipPath id="clip1">
<rect width="1008.43" height="18.3095" fill="white" transform="translate(0.0698242 517.621)"/>
</clipPath>
</defs>
</svg>
