<svg width="114" height="114" viewBox="0 0 114 114" fill="none" xmlns="http://www.w3.org/2000/svg">
<path d="M57.7013 51.0996C57.618 50.9931 57.5115 50.9071 57.39 50.8478C57.2685 50.7886 57.1351 50.7579 56.9999 50.7579C56.8648 50.7579 56.7313 50.7886 56.6098 50.8478C56.4883 50.9071 56.3819 50.9931 56.2986 51.0996L43.8298 66.8748C43.727 67.0061 43.6632 67.1636 43.6458 67.3294C43.6283 67.4952 43.6578 67.6626 43.731 67.8124C43.8041 67.9622 43.918 68.0884 44.0595 68.1766C44.201 68.2647 44.3645 68.3113 44.5312 68.3109H52.7583V95.2969C52.7583 95.7867 53.1591 96.1875 53.6489 96.1875H60.3286C60.8185 96.1875 61.2193 95.7867 61.2193 95.2969V68.3221H69.4687C70.2146 68.3221 70.6265 67.4648 70.17 66.8859L57.7013 51.0996Z" fill="#f39325"/>
<path d="M90.3316 40.824C85.2328 27.3756 72.2408 17.8125 57.0223 17.8125C41.8037 17.8125 28.8117 27.3645 23.7129 40.8129C14.1721 43.3178 7.125 52.0125 7.125 62.3438C7.125 74.6455 17.0889 84.6094 29.3795 84.6094H33.8438C34.3336 84.6094 34.7344 84.2086 34.7344 83.7188V77.0391C34.7344 76.5492 34.3336 76.1484 33.8438 76.1484H29.3795C25.6277 76.1484 22.0986 74.6566 19.4713 71.9514C16.8551 69.2572 15.4635 65.6279 15.5859 61.865C15.6861 58.926 16.6881 56.165 18.5027 53.8383C20.3619 51.467 22.967 49.7414 25.8615 48.9732L30.0809 47.8711L31.6283 43.7965C32.5857 41.2582 33.9217 38.8869 35.6027 36.7383C37.2623 34.6087 39.2282 32.7366 41.4363 31.183C46.0119 27.9656 51.4002 26.2623 57.0223 26.2623C62.6443 26.2623 68.0326 27.9656 72.6082 31.183C74.8236 32.7416 76.783 34.6119 78.4418 36.7383C80.1228 38.8869 81.4588 41.2693 82.4162 43.7965L83.9525 47.86L88.1607 48.9732C94.1947 50.5986 98.4141 56.0871 98.4141 62.3438C98.4141 66.0287 96.9779 69.5022 94.3729 72.1072C93.0953 73.3923 91.5755 74.4111 89.9015 75.1048C88.2275 75.7985 86.4325 76.1532 84.6205 76.1484H80.1562C79.6664 76.1484 79.2656 76.5492 79.2656 77.0391V83.7188C79.2656 84.2086 79.6664 84.6094 80.1562 84.6094H84.6205C96.9111 84.6094 106.875 74.6455 106.875 62.3438C106.875 52.0236 99.8502 43.34 90.3316 40.824Z" fill="#f39325"/>
</svg>
